<svg width="87" height="87" viewBox="0 0 87 87" fill="none" xmlns="http://www.w3.org/2000/svg">
<circle cx="43.5" cy="43.5" r="43.5" fill="white"/>
<path d="M50.6873 56.1248C49.891 56.9211 49.891 58.2122 50.6873 59.0085C51.4836 59.8048 52.7746 59.8048 53.5709 59.0085L50.6873 56.1248ZM65.7228 43.9729L67.1647 45.4147C67.5471 45.0323 67.7619 44.5137 67.7619 43.9729C67.7619 43.4321 67.5471 42.9135 67.1647 42.5311L65.7228 43.9729ZM53.5709 28.9373C52.7746 28.141 51.4836 28.141 50.6873 28.9373C49.8909 29.7336 49.8909 31.0247 50.6873 31.821L53.5709 28.9373ZM37.2584 31.821C38.0547 31.0247 38.0547 29.7336 37.2584 28.9373C36.4621 28.141 35.1711 28.141 34.3748 28.9373L37.2584 31.821ZM22.2228 43.9729L20.781 42.5311C19.9847 43.3274 19.9847 44.6184 20.781 45.4147L22.2228 43.9729ZM34.3748 59.0085C35.1711 59.8048 36.4621 59.8048 37.2584 59.0085C38.0547 58.2122 38.0547 56.9211 37.2584 56.1248L34.3748 59.0085ZM53.5709 59.0085L67.1647 45.4147L64.281 42.5311L50.6873 56.1248L53.5709 59.0085ZM67.1647 42.5311L53.5709 28.9373L50.6873 31.821L64.281 45.4147L67.1647 42.5311ZM34.3748 28.9373L20.781 42.5311L23.6647 45.4147L37.2584 31.821L34.3748 28.9373ZM20.781 45.4147L34.3748 59.0085L37.2584 56.1248L23.6647 42.5311L20.781 45.4147Z" fill="#9300FC"/>
</svg>
