<svg width="32" height="32" viewBox="0 0 32 32" fill="none" xmlns="http://www.w3.org/2000/svg">
<path d="M2.00853 11.5878H8.0065V30.875H2.00853V11.5878ZM5.01866 2C6.93623 2 8.49704 3.56081 8.49704 5.47838C8.49704 7.39595 6.93623 8.95676 5.01866 8.95676C3.08995 8.95676 1.54028 7.39595 1.54028 5.47838C1.54028 3.56081 3.08995 2 5.01866 2Z" fill="#9300FC"/>
<path d="M11.7747 11.5874H17.5162V14.2296H17.5943C18.397 12.7134 20.348 11.1191 23.2689 11.1191C29.3338 11.1191 30.4598 15.1104 30.4598 20.3056V30.8745H24.473V21.4985C24.473 19.2577 24.4395 16.3813 21.3625 16.3813C18.2409 16.3813 17.7726 18.8229 17.7726 21.3313V30.8745H11.7858V11.5874H11.7747Z" fill="#9300FC"/>
</svg>
