<svg width="32" height="32" viewBox="0 0 32 32" fill="none" xmlns="http://www.w3.org/2000/svg">
<path d="M1.0805 12C2.19946 12 3.90454 12 4.86365 12C5.3432 12 5.71619 12.3197 5.87604 12.746C6.35559 14.1314 7.42127 17.1685 8.6468 19.2466C10.2986 21.9641 11.3643 22.9765 12.057 22.8699C12.7496 22.71 12.5365 20.8984 12.5365 19.4597C12.5365 18.0211 12.6964 15.57 12.0037 14.4511L10.938 12.9058C10.6716 12.5328 10.938 12.0533 11.3643 12.0533H17.4386C18.0247 12.0533 18.5043 12.5328 18.5043 13.119V20.8451C18.5043 20.8451 18.7707 22.2305 20.2627 20.7918C21.7546 19.3532 23.3531 16.689 24.6852 13.9715L25.218 12.6927C25.3779 12.3197 25.7509 12.0533 26.1772 12.0533H30.1202C30.8661 12.0533 31.399 12.7993 31.1325 13.4919L30.7063 14.6109C30.7063 14.6109 29.2676 17.4882 27.7757 19.513C26.2837 21.5911 25.964 22.0706 26.1772 22.6035C26.3903 23.1363 30.2267 26.7063 31.1858 28.4114C31.4522 28.891 31.6654 29.3172 31.8785 29.6902C32.2515 30.3829 31.7187 31.2887 30.9194 31.2887H26.4436C26.0706 31.2887 25.6976 31.0756 25.5378 30.7559L25.1115 30.0632C25.1115 30.0632 22.394 26.8662 20.7422 25.8538C19.0371 24.8947 19.0904 26.2801 19.0904 26.2801V29.1041C19.0904 30.2763 18.1313 31.2354 16.9591 31.2354H15.8934C15.8934 31.2354 10.0322 31.2354 5.3432 24.2553C1.66662 18.8203 0.441095 15.3036 0.0148251 13.2788C-0.0917425 12.6394 0.387812 12 1.0805 12Z" fill="#9300FC"/>
</svg>
