<svg width="32" height="32" viewBox="0 0 32 32" fill="none" xmlns="http://www.w3.org/2000/svg">
<g clip-path="url(#clip0_41_18736)">
<path d="M9.27611 11.3906C10.2154 11.3906 11.0692 11.4682 11.8455 11.639C12.614 11.802 13.2738 12.0737 13.8327 12.4541C14.3838 12.8267 14.8107 13.3312 15.1135 13.9522C15.4162 14.5732 15.5637 15.3495 15.5637 16.2654C15.5637 17.259 15.3386 18.0818 14.8883 18.7494C14.4381 19.4092 13.7706 19.9526 12.8779 20.3718C14.0888 20.7211 14.9893 21.3343 15.5792 22.2037C16.1769 23.0808 16.4719 24.1288 16.4719 25.363C16.4719 26.3644 16.2778 27.2182 15.8975 27.9401C15.5093 28.6698 14.9893 29.2675 14.3372 29.7255C13.6852 30.1835 12.94 30.525 12.1016 30.7501C11.2711 30.9675 10.4094 31.0839 9.53227 31.0839H0V11.3906H9.27611ZM8.71721 19.3394C9.48569 19.3394 10.1222 19.1608 10.6268 18.7882C11.1236 18.4234 11.3642 17.8257 11.3642 16.9951C11.3642 16.5371 11.2866 16.1568 11.1236 15.8618C10.9528 15.5668 10.7354 15.3417 10.456 15.1787C10.1766 15.0079 9.86605 14.8992 9.50122 14.8294C9.14415 14.7595 8.77155 14.7285 8.38343 14.7285H4.33144V19.3316H8.71721V19.3394ZM8.95785 27.7228C9.38478 27.7228 9.78843 27.684 10.1766 27.5986C10.5647 27.5132 10.9062 27.3812 11.2012 27.1794C11.4884 26.9854 11.729 26.7292 11.9076 26.3954C12.0861 26.0616 12.1637 25.6347 12.1637 25.1224C12.1637 24.1055 11.8765 23.3913 11.3099 22.9489C10.7432 22.5142 9.98249 22.3046 9.051 22.3046H4.3392V27.7228H8.95785Z" fill="#9300FC"/>
<path d="M22.6586 27.6531C23.2485 28.2275 24.0946 28.5147 25.1891 28.5147C25.9809 28.5147 26.664 28.3129 27.2307 27.917C27.7973 27.5211 28.1466 27.0942 28.2786 26.6517H31.7251C31.174 28.3672 30.3279 29.5937 29.1868 30.3311C28.0535 31.0686 26.6718 31.4412 25.0572 31.4412C23.9316 31.4412 22.9225 31.2626 22.0143 30.8978C21.1061 30.533 20.3531 30.0284 19.7166 29.3686C19.0956 28.701 18.6144 27.917 18.2728 26.9933C17.9313 26.0773 17.7605 25.0604 17.7605 23.9582C17.7605 22.8947 17.939 21.8934 18.2883 20.9774C18.6454 20.0537 19.1344 19.2541 19.7787 18.5866C20.423 17.9112 21.1915 17.3834 22.0919 16.9953C22.9846 16.6071 23.9704 16.4131 25.0649 16.4131C26.2681 16.4131 27.3238 16.646 28.232 17.1195C29.1325 17.5852 29.8699 18.214 30.4521 19.0057C31.0343 19.7975 31.4457 20.6979 31.7018 21.7071C31.958 22.7162 32.0511 23.7719 31.9735 24.8819H21.6883C21.6883 26.0152 22.0686 27.0864 22.6586 27.6531ZM27.153 20.1701C26.6873 19.6578 25.9033 19.3783 24.9407 19.3783C24.312 19.3783 23.7997 19.487 23.3805 19.6966C22.9769 19.9062 22.6431 20.1701 22.3869 20.4806C22.1307 20.7989 21.96 21.1326 21.8591 21.482C21.7582 21.8313 21.6961 22.1418 21.6805 22.4212H28.0535C27.9681 21.4276 27.6266 20.6902 27.153 20.1701Z" fill="#9300FC"/>
<path d="M28.8685 12.71H20.8887V14.6506H28.8685V12.71Z" fill="#9300FC"/>
</g>
<defs>
<clipPath id="clip0_41_18736">
<rect width="32" height="32" fill="white"/>
</clipPath>
</defs>
</svg>
