<svg width="503" height="241" viewBox="0 0 503 241" fill="none" xmlns="http://www.w3.org/2000/svg">
<path d="M146.613 149.337L164.133 142.08L174.644 165.007L157.124 172.263L169.502 199.261L144.099 209.784L131.721 182.786L56.3872 213.99L45.876 191.063L52.7775 69.1389L80.1517 57.8001L73.2502 179.725L121.21 159.859L103.331 120.862L128.734 110.34L146.613 149.337Z" fill="white"/>
<path d="M475.774 190.848L485.235 190.228L493.11 200.175L483.649 200.795L492.923 212.508L479.204 213.407L469.93 201.694L429.247 204.36L421.372 194.413L415.502 149.132L430.285 148.163L436.155 193.444L462.055 191.747L448.66 174.828L462.378 173.929L475.774 190.848Z" fill="white"/>
<path d="M348.129 74.3147C347.591 84.3094 341.644 91.6585 330.288 96.3621C319.021 101.029 307.279 101.007 295.065 96.2946C283.025 91.5099 272.213 82.9595 262.629 70.6434C253.044 58.3272 248.521 47.1717 249.06 37.177C249.773 27.1099 255.763 19.7427 267.031 15.0753C278.387 10.3718 290.084 10.4124 302.124 15.1971C314.193 19.8709 325.049 28.4032 334.691 40.794C344.334 53.1849 348.813 64.3584 348.129 74.3147ZM320.53 83.822C327.343 80.9998 330.652 76.4212 330.458 70.0859C330.264 63.7507 326.652 56.0671 319.624 47.0353C312.595 38.0034 305.402 31.8033 298.045 28.4349C290.688 25.0665 283.603 24.7933 276.79 27.6154C270.064 30.4014 266.755 34.9801 266.862 41.3515C267.056 47.6867 270.668 55.3703 277.696 64.4021C284.725 73.434 291.918 79.6341 299.275 83.0025C306.719 86.3347 313.804 86.6079 320.53 83.822Z" fill="white"/>
</svg>
