<svg width="364" height="285" viewBox="0 0 364 285" fill="none" xmlns="http://www.w3.org/2000/svg">
<path d="M189.217 178.145C186.66 170.72 178.568 166.774 171.143 169.33C163.718 171.887 159.772 179.979 162.328 187.404L189.217 178.145ZM187.017 259.105C189.574 266.53 197.666 270.477 205.091 267.92C212.516 265.364 216.462 257.272 213.906 249.847L187.017 259.105ZM347.82 268.345L335.483 261.275L347.82 268.345ZM92.8799 356.128L98.2491 342.961L98.249 342.961L92.8799 356.128ZM271.01 45.2724L276.379 32.1063L276.379 32.1063L271.01 45.2724ZM16.0699 133.055L3.73309 125.986L3.73309 125.986L16.0699 133.055ZM201.561 213.996L189.217 178.145L162.328 187.404L174.673 223.255L201.561 213.996ZM174.673 223.255L187.017 259.105L213.906 249.847L201.561 213.996L174.673 223.255ZM183.488 205.181C148.516 217.223 112.711 224.632 84.9168 224.863C70.9568 224.979 60.0244 223.269 52.4493 220.183C45.1504 217.21 42.0764 213.505 40.8746 209.633L13.7155 218.064C18.1368 232.307 29.0143 241.343 41.7204 246.519C54.1504 251.583 69.2766 253.432 85.1535 253.3C117.033 253.034 156.016 244.717 192.746 232.07L183.488 205.181ZM192.746 232.07C229.476 219.422 265.316 201.976 290.601 182.558C303.194 172.888 313.975 162.118 320.652 150.475C327.478 138.573 330.487 124.756 325.202 110.811L298.61 120.888C300.046 124.679 299.905 129.491 295.984 136.327C291.914 143.423 284.353 151.501 273.28 160.004C251.235 176.934 218.459 193.14 183.488 205.181L192.746 232.07ZM311.904 155.951C321.306 183.256 328.123 209.402 331.893 229.7C333.784 239.882 334.852 248.297 335.156 254.498C335.308 257.612 335.251 259.866 335.097 261.349C334.907 263.181 334.686 262.666 335.483 261.275L360.157 275.414C362.345 271.595 363.066 267.344 363.383 264.28C363.737 260.868 363.752 257.065 363.559 253.11C363.171 245.173 361.874 235.395 359.852 224.507C355.795 202.665 348.593 175.156 338.793 146.693L311.904 155.951ZM335.483 261.275C336.187 260.046 336.534 260.139 334.698 261.603C333.201 262.797 330.942 264.364 327.829 266.275C321.629 270.081 312.93 274.71 302.174 279.842C280.716 290.082 251.946 301.914 220.521 312.734L229.78 339.622C262.09 328.497 291.871 316.269 314.422 305.507C325.671 300.139 335.341 295.031 342.705 290.511C346.374 288.26 349.695 286.017 352.431 283.834C354.829 281.922 358.061 279.072 360.157 275.414L335.483 261.275ZM220.521 312.734C189.096 323.555 159.141 331.944 135.927 337.086C124.292 339.663 114.588 341.371 107.359 342.189C103.729 342.6 100.984 342.756 99.0691 342.737C96.7213 342.713 96.9374 342.427 98.2491 342.961L87.5107 369.294C91.4141 370.885 95.7158 371.142 98.7824 371.173C102.282 371.208 106.28 370.93 110.557 370.446C119.143 369.474 129.908 367.546 142.077 364.85C166.473 359.447 197.47 350.747 229.78 339.622L220.521 312.734ZM98.249 342.961C99.7334 343.567 99.8763 344.109 98.5987 342.782C97.5642 341.708 96.132 339.967 94.3347 337.42C90.7555 332.346 86.4171 325.058 81.6384 315.87C72.1123 297.553 61.387 272.753 51.9852 245.449L25.097 254.707C34.8978 283.17 46.1583 309.281 56.4091 328.991C61.5189 338.816 66.5168 347.319 71.0976 353.813C73.3803 357.048 75.7341 360.035 78.1134 362.506C80.2498 364.725 83.4346 367.631 87.5107 369.294L98.249 342.961ZM91.013 108.532C106.888 101.909 124.67 95.1044 143.368 88.6659L134.11 61.7777C114.843 68.4119 96.4974 75.4305 80.0634 82.287L91.013 108.532ZM143.368 88.6659C162.067 82.2273 180.268 76.6419 196.856 72.0874L189.326 44.6648C172.155 49.3796 153.377 55.1434 134.11 61.7777L143.368 88.6659ZM276.379 32.1063C272.081 30.3538 267.216 30.3368 264.338 30.4071C260.781 30.4939 256.731 30.8935 252.597 31.4402C244.286 32.5393 234.469 34.3928 225.251 36.3214C215.979 38.2613 207.067 40.3295 200.49 41.908C197.196 42.6985 194.476 43.3691 192.574 43.8434C191.622 44.0806 190.875 44.2689 190.362 44.3987C190.106 44.4636 189.908 44.5139 189.773 44.5484C189.705 44.5657 189.653 44.579 189.617 44.5882C189.599 44.5928 189.585 44.5964 189.575 44.599C189.57 44.6002 189.566 44.6012 189.563 44.602C189.562 44.6024 189.56 44.6027 189.559 44.6029C189.558 44.6032 189.557 44.6034 193.091 58.3761C196.625 72.1488 196.624 72.1489 196.624 72.1489C196.624 72.1488 196.624 72.1488 196.625 72.1486C196.626 72.1483 196.628 72.1478 196.632 72.1469C196.638 72.1453 196.649 72.1426 196.663 72.1389C196.692 72.1315 196.737 72.12 196.797 72.1046C196.918 72.0738 197.101 72.0273 197.342 71.9663C197.824 71.8443 198.538 71.6644 199.454 71.4359C201.287 70.9789 203.925 70.3285 207.126 69.5602C213.539 68.0212 222.163 66.0207 231.074 64.1562C240.04 62.2804 249.055 60.5938 256.325 59.6323C259.982 59.1486 262.911 58.8879 265.032 58.8361C267.833 58.7677 267.346 59.134 265.641 58.4384L276.379 32.1063ZM28.4067 140.125C27.4908 141.723 26.882 141.734 29.131 140.063C30.8342 138.798 33.3027 137.201 36.4821 135.33C42.8036 131.612 50.9456 127.391 59.1654 123.349C67.3356 119.332 75.3631 115.599 81.364 112.864C84.3596 111.498 86.8389 110.386 88.5644 109.618C89.427 109.234 90.1005 108.936 90.5553 108.736C90.7827 108.636 90.9554 108.56 91.0696 108.51C91.1266 108.485 91.1691 108.466 91.1965 108.454C91.2102 108.448 91.2201 108.444 91.2262 108.441C91.2293 108.44 91.2314 108.439 91.2325 108.438C91.2331 108.438 91.2332 108.438 91.2335 108.438C91.2333 108.438 91.233 108.438 85.5382 95.4095C79.8434 82.381 79.8426 82.3813 79.8415 82.3818C79.8408 82.3821 79.8394 82.3827 79.8381 82.3833C79.8353 82.3845 79.8316 82.3861 79.8269 82.3882C79.8175 82.3923 79.8042 82.3981 79.7872 82.4056C79.7531 82.4205 79.7039 82.4421 79.6399 82.4702C79.5119 82.5263 79.3251 82.6085 79.0831 82.7152C78.5991 82.9285 77.8943 83.2402 76.9987 83.639C75.2079 84.4362 72.6514 85.5826 69.5692 86.9875C63.4145 89.7929 55.1186 93.6499 46.6176 97.8298C38.1662 101.985 29.289 106.569 22.0633 110.819C18.4691 112.934 15.032 115.112 12.1751 117.234C9.86408 118.95 6.04059 121.959 3.73309 125.986L28.4067 140.125ZM51.9852 245.449C47.8039 233.305 44.127 221.37 40.9996 210.059L13.5905 217.638C16.8718 229.506 20.722 242.001 25.097 254.707L51.9852 245.449ZM40.9996 210.059C35.5288 190.273 31.7964 172.601 29.9548 159.188C29.0297 152.45 28.6261 147.101 28.6453 143.25C28.6549 141.323 28.7704 140.039 28.8907 139.289C29.0403 138.358 29.0871 138.937 28.4067 140.125L3.73309 125.986C1.97112 129.061 1.20823 132.317 0.8125 134.783C0.387567 137.431 0.222268 140.266 0.208113 143.108C0.179789 148.796 0.756923 155.593 1.7816 163.057C3.83958 178.046 7.88287 196.995 13.5905 217.638L40.9996 210.059ZM265.641 58.4384C264.373 57.9217 264.053 57.436 264.745 58.0782C265.301 58.595 266.183 59.5353 267.377 61.0481C269.763 64.0712 272.738 68.5349 276.158 74.414C282.964 86.1174 290.903 102.341 298.774 121.301L325.038 110.398C316.827 90.6173 308.346 73.1955 300.74 60.1169C296.952 53.605 293.223 47.8937 289.698 43.4287C287.937 41.1975 286.062 39.0655 284.097 37.2406C282.267 35.5412 279.66 33.4446 276.379 32.1063L265.641 58.4384ZM298.774 121.301C303.273 132.139 307.723 143.808 311.904 155.951L338.793 146.693C334.418 133.987 329.759 121.77 325.038 110.398L298.774 121.301ZM199.787 34.1505C196.315 24.0647 190.914 16.0224 183.608 10.2835C176.33 4.56588 168.063 1.84305 159.977 0.902925C144.444 -0.902938 128.014 3.72447 115.593 8.00131L124.852 34.8895C136.858 30.7555 148.011 28.1408 156.693 29.1502C160.714 29.6177 163.712 30.8168 166.042 32.6465C168.344 34.455 170.894 37.5854 172.899 43.4088L199.787 34.1505ZM115.593 8.00131C103.172 12.2782 87.3769 18.7468 76.2487 29.7328C70.4554 35.452 65.6175 42.6871 63.4019 51.6739C61.178 60.6941 61.8737 70.3564 65.3465 80.4422L92.2347 71.1838C90.2295 65.3604 90.3118 61.3235 91.0126 58.4811C91.7217 55.6051 93.3465 52.814 96.2273 49.97C102.447 43.8295 112.846 39.0235 124.852 34.8895L115.593 8.00131ZM65.3465 80.4422L72.0941 100.039L98.9823 90.7803L92.2347 71.1838L65.3465 80.4422ZM172.899 43.4088L179.647 63.0053L206.535 53.7469L199.787 34.1505L172.899 43.4088Z" fill="#9300FC" fill-opacity="0.2"/>
</svg>
