<svg width="155" height="46" viewBox="0 0 155 46" fill="none" xmlns="http://www.w3.org/2000/svg">
<path d="M43.0531 11.9609V20.2418H34.8207V45.4674H26.3027V20.2418H18.0703V11.9609H43.0531Z" fill="#9300FC"/>
<path d="M0.13119 11.9607C4.83552 11.9607 8.64914 15.7743 8.64914 20.4786V45.4671C3.94481 45.4671 0.13119 41.6535 0.13119 36.9492V28.7139V11.9607Z" fill="#9300FC"/>
<path d="M5.82037e-06 4.25898C2.60587e-06 1.90681 1.90681 0 4.25898 0C6.61114 0 8.51795 1.9068 8.51796 4.25897V4.34646C8.51796 6.69863 6.61115 8.60543 4.25898 8.60543C1.90682 8.60543 9.15443e-06 6.69863 5.93993e-06 4.34647L5.82037e-06 4.25898Z" fill="#9300FC"/>
<path d="M77.7792 44.812H69.7429L63.5755 34.0421H60.0245V44.812H52.5488V12.0342H65.6313C68.7461 12.0342 71.3938 13.1268 73.5742 15.312C75.7546 17.4971 76.8448 20.1506 76.8448 23.2723C76.8448 25.2389 76.2841 27.0807 75.1628 28.7977C74.0725 30.5146 72.6241 31.8413 70.8175 32.7778L77.7792 44.812ZM65.6313 19.058H60.0245V27.4866H65.6313C66.6592 27.4866 67.5313 27.0807 68.2478 26.2691C68.9953 25.4575 69.3691 24.4585 69.3691 23.2723C69.3691 22.086 68.9953 21.0871 68.2478 20.2755C67.5313 19.4638 66.6592 19.058 65.6313 19.058Z" fill="white"/>
<path d="M87.328 34.2294V12.0342H94.8037V33.5739C94.8037 36.6331 96.5169 38.1628 99.9432 38.1628C103.37 38.1628 105.083 36.6331 105.083 33.5739V12.0342H112.558V34.2294C112.558 37.6945 111.375 40.426 109.007 42.4239C106.609 44.453 103.588 45.4675 99.9432 45.4675C96.2988 45.4675 93.2774 44.453 90.879 42.4239C88.5117 40.426 87.328 37.6945 87.328 34.2294Z" fill="white"/>
<path d="M147.524 12.0342H155V44.812H147.524V25.754L139.068 39.6612H138.227L129.77 25.754V44.812H122.294V12.0342H129.77L138.647 26.5969L147.524 12.0342Z" fill="white"/>
<path d="M147.327 12.0342H154.802V44.812H147.327V25.754L138.87 39.6612H138.029L129.572 25.754V44.812H122.096V12.0342H129.572L138.449 26.5969L147.327 12.0342Z" fill="white"/>
</svg>
