<svg width="725" height="201" viewBox="0 0 725 201" fill="none" xmlns="http://www.w3.org/2000/svg">
<circle cx="96.4965" cy="100.499" r="68.4681" fill="url(#paint0_radial_824_1194)"/>
<circle cx="96.4965" cy="100.499" r="68.4681" fill="url(#paint1_radial_824_1194)"/>
<path d="M287.85 146.943H264.216V100.206L231.421 146.943H212.965V54H236.732V100.737L269.527 54H287.85V146.943Z" fill="white"/>
<path d="M313.848 54H383.555V76.9701H360.585V146.943H336.818V76.9701H313.848V54Z" fill="white"/>
<path d="M409.436 54H445.551C454.934 54 462.812 57.0538 469.185 63.1615C475.558 69.2692 478.745 77.0587 478.745 86.53C478.745 96.0013 475.558 103.791 469.185 109.898C462.812 116.006 454.934 119.06 445.551 119.06H433.203V146.943H409.436V54ZM433.203 96.4881H445.551C448.206 96.4881 450.419 95.5587 452.19 93.6998C454.049 91.841 454.978 89.451 454.978 86.53C454.978 83.6089 454.049 81.2632 452.19 79.4929C450.419 77.634 448.206 76.7046 445.551 76.7046H433.203V96.4881Z" fill="white"/>
<path d="M537.501 91.9738L552.372 54H576.67L549.849 118.396C545.6 128.487 540.024 135.878 533.119 140.57C526.304 145.261 517.85 147.385 507.759 146.943V124.769C516.168 125.477 522.365 123.22 526.348 117.998L495.942 54H520.373L537.501 91.9738Z" fill="white"/>
<path d="M673.185 54H696.819V146.943H673.185V96.8865L650.613 134.196H648.223L625.784 97.0192V146.943H602.017V54H625.784L649.418 93.6998L673.185 54Z" fill="white"/>
<defs>
<radialGradient id="paint0_radial_824_1194" cx="0" cy="0" r="1" gradientUnits="userSpaceOnUse" gradientTransform="translate(87.9959 109.618) rotate(-45.2292) scale(109.288)">
<stop/>
<stop offset="1" stop-color="#9300FC"/>
</radialGradient>
<radialGradient id="paint1_radial_824_1194" cx="0" cy="0" r="1" gradientUnits="userSpaceOnUse" gradientTransform="translate(65.2762 133.42) rotate(-45.4844) scale(142.188)">
<stop offset="0.328568"/>
<stop offset="1" stop-color="#9300FC"/>
</radialGradient>
</defs>
</svg>
