<svg width="64" height="31" viewBox="0 0 64 31" fill="none" xmlns="http://www.w3.org/2000/svg">
<g clip-path="url(#clip0_41_18761)">
<path d="M18.6667 20.3337C17.5622 20.3337 16.6667 21.2291 16.6667 22.3337C16.6667 23.4382 17.5622 24.3337 18.6667 24.3337V20.3337ZM53.3334 24.3337C54.438 24.3337 55.3334 23.4382 55.3334 22.3337C55.3334 21.2291 54.438 20.3337 53.3334 20.3337V24.3337ZM10.6667 7.00032C9.56218 7.00032 8.66675 7.89575 8.66675 9.00032C8.66675 10.1049 9.56218 11.0003 10.6667 11.0003V7.00032ZM53.3334 11.0003C54.438 11.0003 55.3334 10.1049 55.3334 9.00032C55.3334 7.89575 54.438 7.00032 53.3334 7.00032V11.0003ZM29.3334 -6.33301C28.2288 -6.33301 27.3334 -5.43758 27.3334 -4.33301C27.3334 -3.22844 28.2288 -2.33301 29.3334 -2.33301V-6.33301ZM53.3334 -2.33301C54.438 -2.33301 55.3334 -3.22844 55.3334 -4.33301C55.3334 -5.43758 54.438 -6.33301 53.3334 -6.33301V-2.33301ZM18.6667 24.3337H53.3334V20.3337H18.6667V24.3337ZM10.6667 11.0003H53.3334V7.00032H10.6667V11.0003ZM29.3334 -2.33301H53.3334V-6.33301H29.3334V-2.33301Z" fill="white"/>
</g>
<defs>
<clipPath id="clip0_41_18761">
<rect width="64" height="31" fill="white"/>
</clipPath>
</defs>
</svg>
