<svg width="38" height="38" viewBox="0 0 38 38" fill="none" xmlns="http://www.w3.org/2000/svg">
<path xmlns="http://www.w3.org/2000/svg" d="M16.2468 16.2468L16.8125 16.8125L16.2468 16.2468ZM16.5306 5.77683L17.2211 5.37279L16.5306 5.77683ZM6.46633 2.42116L6.07351 1.72424L6.46633 2.42116ZM4.49024 3.53498L4.88306 4.2319L4.49024 3.53498ZM1.4684 5.77573L2.15914 6.17931L1.4684 5.77573ZM11.119 3.11525L13.1101 4.23403L13.8938 2.83915L11.9028 1.72038L11.119 3.11525ZM16.2 9.51463V11.8571H17.8V9.51463H16.2ZM4.88306 4.2319L6.85914 3.11808L6.07351 1.72424L4.09742 2.83807L4.88306 4.2319ZM1.80008 11.8571L1.80012 9.50847L0.200115 9.50844L0.200079 11.8571L1.80008 11.8571ZM11.8571 16.2H6.14294V17.8H11.8571V16.2ZM0.200079 11.8571C0.200061 13.0466 0.198347 14.0193 0.301314 14.7852C0.407375 15.5742 0.637496 16.2625 1.18749 16.8125L2.31887 15.6812C2.11571 15.478 1.96926 15.1836 1.88705 14.5721C1.80175 13.9375 1.80006 13.0919 1.80008 11.8571L0.200079 11.8571ZM6.14294 16.2C4.90812 16.2 4.06249 16.1983 3.42794 16.113C2.81641 16.0308 2.52203 15.8843 2.31887 15.6812L1.18749 16.8125C1.73748 17.3625 2.42579 17.5926 3.21474 17.6987C3.98069 17.8017 4.95335 17.8 6.14294 17.8V16.2ZM16.2 11.8571C16.2 13.0919 16.1983 13.9376 16.113 14.5721C16.0308 15.1836 15.8843 15.478 15.6812 15.6812L16.8125 16.8125C17.3625 16.2625 17.5927 15.5742 17.6987 14.7853C17.8017 14.0194 17.8 13.0467 17.8 11.8571H16.2ZM11.8571 17.8C13.0467 17.8 14.0194 17.8017 14.7853 17.6987C15.5742 17.5927 16.2625 17.3625 16.8125 16.8125L15.6812 15.6812C15.478 15.8843 15.1836 16.0308 14.5721 16.113C13.9376 16.1983 13.0919 16.2 11.8571 16.2V17.8ZM13.1101 4.23403C13.9769 4.72109 14.5759 5.05874 15.021 5.37061C15.4516 5.67228 15.6839 5.91389 15.8401 6.18086L17.2211 5.37279C16.9079 4.83759 16.479 4.43844 15.9391 4.06022C15.4138 3.69219 14.7332 3.31081 13.8938 2.83915L13.1101 4.23403ZM17.8 9.51463C17.8 8.55181 17.8009 7.77163 17.7374 7.1334C17.6721 6.47748 17.5343 5.90799 17.2211 5.37279L15.8401 6.18086C15.9964 6.44783 16.0932 6.7687 16.1453 7.29186C16.1991 7.83272 16.2 8.52035 16.2 9.51463H17.8ZM11.9028 1.72038C11.2997 1.3815 10.7987 1.09898 10.3627 0.906665C9.91102 0.70739 9.47437 0.578921 8.98739 0.579244L8.98845 2.17924C9.17536 2.17912 9.38383 2.2236 9.71695 2.37055C10.0658 2.52446 10.4894 2.76145 11.119 3.11525L11.9028 1.72038ZM6.85914 3.11808C7.48833 2.76344 7.91152 2.52589 8.26021 2.37152C8.59314 2.22412 8.80155 2.17937 8.98845 2.17924L8.98739 0.579244C8.50042 0.579567 8.06394 0.708615 7.61249 0.908489C7.1768 1.10138 6.67614 1.38457 6.07351 1.72424L6.85914 3.11808ZM4.09742 2.83807C3.25991 3.31013 2.5808 3.69187 2.05667 4.06003C1.51801 4.4384 1.09006 4.83747 0.777658 5.37215L2.15914 6.17931C2.31498 5.91259 2.54674 5.67107 2.97634 5.36931C3.42048 5.05733 4.01817 4.7194 4.88306 4.2319L4.09742 2.83807ZM1.80012 9.50847C1.80013 8.51565 1.80105 7.82904 1.85475 7.28895C1.9067 6.76653 2.0033 6.44603 2.15914 6.17931L0.777658 5.37215C0.465256 5.90684 0.327735 6.4756 0.262604 7.13064C0.199231 7.768 0.20013 8.54705 0.200115 9.50844L1.80012 9.50847Z" fill="url(#paint0_linear_512_54645)"/>
</svg>
