<svg width="38" height="38" viewBox="0 0 38 38" fill="none" xmlns="http://www.w3.org/2000/svg">
<path d="M28.9086 27.6685C28.9086 27.9973 28.778 28.3127 28.5454 28.5452C28.3129 28.7777 27.9975 28.9083 27.6687 28.9083H18.9895C16.3792 28.9016 13.8777 27.8617 12.0319 26.0159C10.1861 24.1702 9.14611 21.6687 9.13941 19.0584V19.024C9.13703 16.4077 10.1729 13.8974 12.0197 12.0442C13.8665 10.191 16.3732 9.14639 18.9895 9.13965H19.024C20.7131 9.14145 22.3737 9.57508 23.848 10.3993C25.3223 11.2236 26.5614 12.4111 27.4476 13.849C27.4981 13.9316 27.5477 14.015 27.5963 14.099C27.9357 14.6913 28.2127 15.317 28.4229 15.9664C28.4918 16.1675 28.5476 16.3721 28.6 16.5787C28.6688 16.8584 28.7308 17.1435 28.7777 17.4322C28.7963 17.5486 28.8135 17.665 28.828 17.7827C28.8274 18.0712 28.7271 18.3505 28.5441 18.5734C28.361 18.7964 28.1065 18.9492 27.8238 19.0059C27.541 19.0627 27.2473 19.0199 26.9924 18.8848C26.7375 18.7498 26.5372 18.5308 26.4254 18.2649C26.4023 18.2111 26.3834 18.1556 26.3689 18.0989C26.3572 18.006 26.3441 17.9143 26.3282 17.8234C26.3028 17.6622 26.2718 17.5038 26.2352 17.3461C26.0445 16.5258 25.7153 15.7441 25.262 15.0344C25.0506 14.7043 24.8134 14.3915 24.5524 14.099C24.3635 13.886 24.162 13.6845 23.9491 13.4956C22.5943 12.2853 20.8407 11.6173 19.024 11.6193H18.9895C17.1527 11.6247 15.384 12.3156 14.03 13.557C13.8423 13.7277 13.6638 13.9084 13.4955 14.0984C12.2852 15.4531 11.6171 17.2067 11.6191 19.0233C11.6191 19.035 11.6191 19.046 11.6191 19.0577C11.6248 20.8625 12.2922 22.6025 13.4948 23.9483C13.6632 24.1382 13.8416 24.3189 14.0293 24.4897C15.3833 25.731 17.152 26.422 18.9889 26.4273H27.668C27.9968 26.4273 28.3122 26.5579 28.5447 26.7904C28.7772 27.0229 28.9079 27.3383 28.9079 27.6671L28.9086 27.6685Z" fill="#9300FC"/>
<path d="M33.8677 18.8981C33.8677 18.9504 33.8677 19.0028 33.8622 19.0551C33.825 19.908 33.5742 20.7379 33.1327 21.4687C32.7015 22.1817 32.1037 22.7794 31.3907 23.2107C30.6411 23.665 29.787 23.9182 28.9109 23.9456C28.8538 23.9456 28.7966 23.9456 28.7387 23.9456H18.9898C18.1166 23.9415 17.2603 23.7037 16.5101 23.2568C15.7798 22.8241 15.1739 22.2097 14.7514 21.4734C14.3289 20.7371 14.1043 19.904 14.0992 19.0551C14.0992 19.0434 14.0992 19.0324 14.0992 19.0207C14.0986 17.7203 14.6126 16.4726 15.529 15.55C16.4453 14.6274 17.6895 14.1048 18.9898 14.0964H19.0243C19.8924 14.0959 20.7452 14.3251 21.4962 14.7606C22.2472 15.1961 22.8697 15.8224 23.3005 16.5761C23.4066 16.7612 23.5002 16.9531 23.5808 17.1506C23.6401 17.2925 23.6917 17.4378 23.7372 17.5866L23.7434 17.6307C23.7495 17.6803 23.7525 17.7302 23.7524 17.7801C23.7528 17.9678 23.7107 18.1532 23.6291 18.3222C23.5337 18.5198 23.388 18.6888 23.2067 18.8123C23.0254 18.9358 22.8148 19.0095 22.596 19.0259C22.3772 19.0423 22.158 19.0009 21.9603 18.9058C21.7625 18.8107 21.5933 18.6652 21.4696 18.4841C21.4233 18.4171 21.3841 18.3456 21.3525 18.2706C21.3367 18.2203 21.3194 18.1714 21.3001 18.1225C21.12 17.6665 20.807 17.2751 20.4016 16.9992C19.9963 16.7233 19.5174 16.5757 19.027 16.5754H18.9926C18.3501 16.5843 17.7369 16.8458 17.2858 17.3032C16.8346 17.7607 16.5817 18.3774 16.5817 19.02C16.5817 19.0317 16.5817 19.0427 16.5817 19.0545C16.5903 19.6911 16.847 20.2994 17.2973 20.7497C17.7476 21.1999 18.3558 21.4567 18.9926 21.4653H28.9116C29.5312 21.4025 30.1112 21.118 30.5572 20.6833C31.0031 20.2486 31.31 19.6757 31.3886 19.0579V18.7135C31.3887 18.6254 31.3844 18.5373 31.3755 18.4497C31.3759 18.4478 31.3759 18.446 31.3755 18.4442C31.3466 17.8173 31.2702 17.1935 31.1468 16.5782C30.9763 15.7263 30.7153 14.895 30.3684 14.0985C30.3437 14.0406 30.3182 13.9828 30.2913 13.9249C29.9219 13.1088 29.4643 12.3355 28.9268 11.6188C28.9213 11.6105 28.915 11.6029 28.9089 11.5947C28.2088 10.665 27.3814 9.83841 26.4511 9.13907L26.427 9.12116C24.2914 7.52017 21.6934 6.6562 19.0243 6.65938H18.9898C18.1567 6.66099 17.3259 6.74687 16.5101 6.91564C15.6575 7.09101 14.8262 7.35725 14.0303 7.70979C13.1666 8.09141 12.3496 8.57102 11.5954 9.13907H11.5506V9.17284C10.6313 9.87147 9.81391 10.6947 9.12179 11.6188H9.07082V11.6877C7.99794 13.1391 7.25742 14.8087 6.90169 16.5782C6.74062 17.3833 6.65963 18.2024 6.65991 19.0234V19.0579C6.66167 19.8675 6.74266 20.6749 6.90169 21.4687C7.25742 23.2382 7.99794 24.9078 9.07082 26.3592V26.4281H9.12179C9.81391 27.3522 10.6313 28.1754 11.5506 28.874V28.9078H11.5954C12.3496 29.4759 13.1666 29.9555 14.0303 30.3371C14.8262 30.6896 15.6575 30.9559 16.5101 31.1312C17.3259 31.3 18.1567 31.3859 18.9898 31.3875H22.7095C23.0383 31.3875 23.3536 31.5181 23.5862 31.7506C23.8187 31.9831 23.9493 32.2985 23.9493 32.6273C23.9493 32.9562 23.8187 33.2715 23.5862 33.504C23.3536 33.7366 23.0383 33.8672 22.7095 33.8672H18.9898C18.1588 33.8656 17.3293 33.7946 16.5101 33.6551C14.7618 33.3569 13.0818 32.7458 11.5506 31.851C11.2975 31.7037 11.0498 31.5491 10.8073 31.3875C9.12925 30.2693 7.69499 28.8229 6.59104 27.1355C6.43951 26.9059 6.29464 26.6701 6.15641 26.4281C5.27106 24.8952 4.66948 23.2152 4.38062 21.4687C4.24878 20.6718 4.18174 19.8656 4.18018 19.0579V19.0234C4.18002 18.2043 4.24706 17.3864 4.38062 16.5782C4.66948 14.8317 5.27106 13.1517 6.15641 11.6188C6.29416 11.3782 6.43904 11.1424 6.59104 10.9114C7.69456 9.22362 9.12892 7.77715 10.8073 6.65938C11.0507 6.49731 11.2984 6.34274 11.5506 6.19583C13.0818 5.30107 14.7618 4.68994 16.5101 4.39184C17.3293 4.25225 18.1588 4.18128 18.9898 4.17969H19.0243C19.8435 4.17953 20.6613 4.24657 21.4696 4.38013C23.2161 4.66898 24.8962 5.27053 26.4291 6.15588C26.7046 6.31519 26.9753 6.48306 27.2412 6.65938C28.8841 7.75425 30.2937 9.16386 31.3886 10.8067C31.5649 11.0721 31.7328 11.3428 31.8922 11.6188C33.1064 13.7245 33.7823 16.0973 33.8601 18.5268C33.8642 18.648 33.867 18.7734 33.8677 18.8981Z" fill="#9300FC"/>
</svg>
