<svg width="719" height="980" viewBox="0 0 719 980" fill="none" xmlns="http://www.w3.org/2000/svg">
<g clip-path="url(#clip0_66_37)">
<path d="M745.54 713.55C745.54 722.031 742.171 730.164 736.173 736.16C730.177 742.157 722.044 745.525 713.564 745.525H489.733C422.413 745.351 357.901 718.533 310.298 670.931C262.696 623.33 235.876 558.819 235.703 491.501V490.613C235.642 423.141 262.357 358.402 309.985 310.609C357.613 262.815 422.26 235.875 489.733 235.701H490.621C534.182 235.748 577.008 246.931 615.029 268.188C653.051 289.444 685.008 320.069 707.861 357.153C709.163 359.284 710.444 361.434 711.698 363.601C720.449 378.874 727.594 395.012 733.015 411.759C734.792 416.946 736.231 422.222 737.581 427.551C739.357 434.764 740.956 442.117 742.164 449.56C742.644 452.563 743.089 455.565 743.461 458.602C743.445 466.04 740.859 473.245 736.139 478.994C731.419 484.744 724.856 488.683 717.563 490.147C710.27 491.611 702.695 490.507 696.122 487.025C689.55 483.542 684.383 477.893 681.499 471.037C680.905 469.649 680.418 468.218 680.043 466.756C679.74 464.358 679.403 461.995 678.994 459.651C678.337 455.494 677.538 451.408 676.596 447.341C671.677 426.186 663.188 406.026 651.495 387.725C646.044 379.211 639.926 371.145 633.197 363.601C628.326 358.108 623.129 352.912 617.636 348.04C582.697 316.827 537.472 299.598 490.621 299.651H489.733C442.361 299.788 396.748 317.608 361.829 349.621C356.988 354.025 352.386 358.685 348.044 363.584C316.831 398.522 299.602 443.745 299.654 490.596C299.654 490.897 299.654 491.181 299.654 491.484C299.801 538.028 317.013 582.902 348.027 617.607C352.369 622.505 356.97 627.166 361.812 631.57C396.73 663.583 442.344 681.403 489.716 681.54H713.546C722.026 681.54 730.16 684.909 736.156 690.905C742.153 696.902 745.521 705.034 745.521 713.515L745.54 713.55Z" fill="url(#paint0_linear_66_37)" fill-opacity="0.6"/>
<path d="M873.427 487.381C873.427 488.731 873.427 490.081 873.284 491.431C872.325 513.427 865.857 534.831 854.472 553.676C843.35 572.063 827.934 587.479 809.547 598.602C790.216 610.318 768.188 616.847 745.594 617.555C744.12 617.555 742.646 617.555 741.154 617.555H489.735C467.214 617.45 445.132 611.316 425.783 599.791C406.949 588.631 391.324 572.786 380.429 553.797C369.533 534.809 363.738 513.323 363.608 491.431C363.608 491.13 363.608 490.846 363.608 490.543C363.593 457.008 376.85 424.829 400.481 401.036C424.112 377.242 456.2 363.764 489.735 363.549H490.623C513.012 363.536 535.006 369.446 554.373 380.677C573.741 391.909 589.794 408.061 600.904 427.499C603.64 432.271 606.054 437.221 608.134 442.314C609.662 445.974 610.994 449.721 612.167 453.559L612.326 454.696C612.484 455.975 612.562 457.262 612.558 458.55C612.569 463.391 611.482 468.171 609.378 472.531C606.918 477.626 603.162 481.985 598.486 485.17C593.809 488.355 588.378 490.255 582.735 490.678C577.094 491.101 571.44 490.032 566.341 487.58C561.241 485.128 556.878 481.377 553.687 476.706C552.494 474.977 551.482 473.132 550.666 471.198C550.258 469.902 549.813 468.64 549.316 467.378C544.671 455.618 536.598 445.524 526.144 438.411C515.691 431.296 503.339 427.488 490.694 427.481H489.806C473.236 427.711 457.423 434.453 445.788 446.251C434.151 458.05 427.629 473.954 427.631 490.526C427.631 490.827 427.631 491.112 427.631 491.414C427.851 507.834 434.472 523.52 446.085 535.133C457.698 546.745 473.384 553.366 489.806 553.588H745.613C761.591 551.97 776.55 544.631 788.051 533.421C799.552 522.209 807.466 507.435 809.493 491.502V482.62C809.496 480.349 809.384 478.078 809.156 475.817C809.164 475.77 809.164 475.722 809.156 475.675C808.41 459.508 806.439 443.421 803.257 427.552C798.86 405.582 792.129 384.145 783.183 363.603C782.544 362.111 781.887 360.618 781.194 359.125C771.666 338.078 759.865 318.135 746.003 299.653C745.861 299.44 745.701 299.244 745.542 299.03C727.486 275.055 706.149 253.737 682.158 235.702L681.536 235.24C626.459 193.951 559.459 171.67 490.623 171.752H489.735C468.249 171.793 446.823 174.008 425.783 178.361C403.796 182.883 382.356 189.749 361.831 198.841C339.557 208.683 318.487 221.052 299.035 235.702H297.88V236.573C274.174 254.59 253.093 275.82 235.243 299.653H233.929V301.429C206.26 338.86 187.162 381.918 177.988 427.552C173.834 448.316 171.745 469.439 171.753 490.614V491.502C171.798 512.381 173.887 533.205 177.988 553.676C187.162 599.31 206.26 642.369 233.929 679.8V681.576H235.243C253.093 705.408 274.174 726.639 297.88 744.656V745.527H299.035C318.487 760.177 339.557 772.546 361.831 782.387C382.356 791.478 403.796 798.345 425.783 802.868C446.823 807.22 468.249 809.435 489.735 809.477H585.662C594.142 809.477 602.275 812.846 608.273 818.842C614.269 824.838 617.638 832.971 617.638 841.452C617.638 849.932 614.269 858.065 608.273 864.062C602.275 870.058 594.142 873.427 585.662 873.427H489.735C468.302 873.385 446.911 871.555 425.783 867.956C380.697 860.268 337.369 844.507 297.88 821.432C291.354 817.63 284.965 813.646 278.712 809.477C235.436 780.639 198.447 743.338 169.976 699.82C166.069 693.898 162.332 687.817 158.768 681.576C135.935 642.044 120.42 598.717 112.971 553.676C109.571 533.125 107.842 512.332 107.802 491.502V490.614C107.797 469.488 109.526 448.396 112.971 427.552C120.42 382.512 135.935 339.185 158.768 299.653C162.32 293.447 166.056 287.366 169.976 281.409C198.436 237.882 235.427 200.578 278.712 171.752C284.989 167.572 291.378 163.586 297.88 159.797C337.369 136.722 380.697 120.961 425.783 113.273C446.911 109.673 468.302 107.843 489.735 107.802H490.623C511.75 107.798 532.842 109.527 553.687 112.971C598.728 120.42 642.056 135.934 681.589 158.767C688.695 162.875 695.677 167.204 702.534 171.752C744.902 199.988 781.256 236.341 809.493 278.709C814.04 285.553 818.369 292.534 822.479 299.653C853.794 353.958 871.225 415.151 873.231 477.807C873.337 480.933 873.408 484.166 873.427 487.381Z" fill="url(#paint1_linear_66_37)" fill-opacity="0.6"/>
</g>
<defs>
<linearGradient id="paint0_linear_66_37" x1="490.621" y1="235.701" x2="490.621" y2="745.525" gradientUnits="userSpaceOnUse">
<stop stop-color="#9300FC"/>
<stop offset="1" stop-color="#9300FC" stop-opacity="0.21"/>
</linearGradient>
<linearGradient id="paint1_linear_66_37" x1="490.614" y1="107.802" x2="490.614" y2="873.427" gradientUnits="userSpaceOnUse">
<stop stop-color="#9300FC"/>
<stop offset="1" stop-color="#9300FC" stop-opacity="0.21"/>
</linearGradient>
<clipPath id="clip0_66_37">
<rect width="980" height="980" rx="490" fill="white"/>
</clipPath>
</defs>
</svg>
