<svg width="48" height="48" viewBox="0 0 48 48" fill="none" xmlns="http://www.w3.org/2000/svg">
<rect width="48" height="48" rx="8" fill="#9300FC" fill-opacity="0.2"/>
<path d="M39.3737 20.7071C39.7642 20.3166 39.7642 19.6834 39.3737 19.2929C38.9832 18.9024 38.35 18.9024 37.9595 19.2929L39.3737 20.7071ZM33.0667 25.5999L32.3596 26.307C32.7501 26.6975 33.3833 26.6975 33.7738 26.307L33.0667 25.5999ZM31.3738 22.4928C30.9832 22.1023 30.3501 22.1023 29.9595 22.4929C29.569 22.8834 29.569 23.5166 29.9596 23.9071L31.3738 22.4928ZM37.9595 19.2929L32.3596 24.8928L33.7738 26.307L39.3737 20.7071L37.9595 19.2929ZM29.9596 23.9071L32.3596 26.307L33.7738 24.8928L31.3738 22.4928L29.9596 23.9071ZM16.6666 37.0002H31.3333V35.0002H16.6666V37.0002ZM23.9999 26.3335C22.6936 26.3335 19.8856 26.3001 17.397 26.9968C16.1475 27.3466 14.8906 27.9027 13.9347 28.8144C12.9491 29.7545 12.3333 31.0278 12.3333 32.6668H14.3333C14.3333 31.5853 14.7174 30.8318 15.3151 30.2617C15.9425 29.6633 16.8524 29.2262 17.9362 28.9228C20.1142 28.313 22.6396 28.3335 23.9999 28.3335V26.3335ZM23.9999 28.3335C25.3602 28.3335 27.8856 28.313 30.0637 28.9228C31.1475 29.2262 32.0573 29.6633 32.6847 30.2617C33.2825 30.8318 33.6666 31.5853 33.6666 32.6668H35.6666C35.6666 31.0278 35.0507 29.7545 34.0651 28.8144C33.1092 27.9027 31.8524 27.3466 30.6028 26.9968C28.1142 26.3001 25.3063 26.3335 23.9999 26.3335V28.3335ZM12.3333 32.6668C12.3333 35.0601 14.2734 37.0002 16.6666 37.0002V35.0002C15.3779 35.0002 14.3333 33.9555 14.3333 32.6668H12.3333ZM33.6666 32.6668C33.6666 33.9555 32.6219 35.0002 31.3333 35.0002V37.0002C33.7265 37.0002 35.6666 35.0601 35.6666 32.6668H33.6666ZM28.3333 17.3333C28.3333 19.7266 26.3932 21.6667 23.9999 21.6667V23.6667C27.4977 23.6667 30.3333 20.8311 30.3333 17.3333H28.3333ZM23.9999 21.6667C21.6067 21.6667 19.6666 19.7266 19.6666 17.3333H17.6666C17.6666 20.8311 20.5021 23.6667 23.9999 23.6667V21.6667ZM19.6666 17.3333C19.6666 14.9401 21.6067 13 23.9999 13V11C20.5021 11 17.6666 13.8355 17.6666 17.3333H19.6666ZM23.9999 13C26.3932 13 28.3333 14.9401 28.3333 17.3333H30.3333C30.3333 13.8355 27.4977 11 23.9999 11V13Z" fill="#9300FC"/>
</svg>
