<svg width="174" height="120" viewBox="0 0 174 120" fill="none" xmlns="http://www.w3.org/2000/svg">
<path d="M142.6 145.511L136.107 147.112L142.6 145.511ZM128.2 157.22L131.223 151.255L128.2 157.22ZM136.333 101.371L141.334 105.811V105.811L136.333 101.371ZM134.029 110.758L140.522 109.157L134.029 110.758ZM157.855 52.3466L157.335 59.0139V59.0139L157.855 52.3466ZM164.627 69.5039L159.626 65.0638L164.627 69.5039ZM109.915 43.2624L103.813 45.9987V45.9987L109.915 43.2624ZM118.384 49.269L118.904 42.6017L118.384 49.269ZM77.7511 12.7869L71.649 10.0506L71.649 10.0506L77.7511 12.7869ZM96.2489 12.7869L102.351 10.0506V10.0506L96.2489 12.7869ZM55.6157 49.269L55.0958 42.6017L55.6157 49.269ZM64.0854 43.2624L70.1874 45.9987V45.9987L64.0854 43.2624ZM9.37289 69.5039L4.37205 73.944L9.37289 69.5039ZM16.1452 52.3466L16.6651 59.0139L16.6651 59.0139L16.1452 52.3466ZM39.9714 110.758L33.4784 109.157H33.4784L39.9714 110.758ZM37.6667 101.371L32.6659 105.811L37.6667 101.371ZM45.7999 157.22L42.7766 151.255L45.7999 157.22ZM31.4003 145.511L37.8932 147.112L31.4003 145.511ZM82.4565 138.641L85.4798 144.606L82.4565 138.641ZM91.5435 138.641L88.5202 144.606L91.5435 138.641ZM79.4332 132.676L42.7766 151.255L48.8232 163.185L85.4798 144.606L79.4332 132.676ZM37.8932 147.112L46.4643 112.359L33.4784 109.157L24.9073 143.91L37.8932 147.112ZM42.6675 96.9311L14.3737 65.0639L4.37205 73.944L32.6659 105.811L42.6675 96.9311ZM16.6651 59.0139L56.1355 55.9362L55.0958 42.6017L15.6253 45.6794L16.6651 59.0139ZM70.1874 45.9987L83.8532 15.5232L71.649 10.0506L57.9833 40.5261L70.1874 45.9987ZM90.1468 15.5231L103.813 45.9987L116.017 40.5261L102.351 10.0506L90.1468 15.5231ZM117.864 55.9362L157.335 59.0139L158.375 45.6794L118.904 42.6017L117.864 55.9362ZM159.626 65.0638L131.332 96.9311L141.334 105.811L169.628 73.944L159.626 65.0638ZM127.536 112.359L136.107 147.112L149.093 143.91L140.522 109.157L127.536 112.359ZM131.223 151.255L94.5668 132.676L88.5202 144.606L125.177 163.185L131.223 151.255ZM136.107 147.112C136.898 150.322 133.676 152.498 131.223 151.255L125.177 163.185C138.251 169.812 152.511 157.772 149.093 143.91L136.107 147.112ZM131.332 96.9311C127.602 101.133 126.193 106.913 127.536 112.359L140.522 109.157C140.226 107.957 140.544 106.701 141.334 105.811L131.332 96.9311ZM157.335 59.0139C160.082 59.2281 161.698 62.7309 159.626 65.0638L169.628 73.944C178.836 63.5727 172.439 46.776 158.375 45.6794L157.335 59.0139ZM103.813 45.9987C106.332 51.6174 111.698 55.4554 117.864 55.9362L118.904 42.6017C117.686 42.5067 116.562 41.7419 116.017 40.5261L103.813 45.9987ZM83.8532 15.5232C85.1002 12.7423 88.8998 12.7423 90.1468 15.5231L102.351 10.0506C96.3792 -3.26689 77.6208 -3.26684 71.649 10.0506L83.8532 15.5232ZM56.1355 55.9362C62.3018 55.4554 67.6679 51.6174 70.1874 45.9987L57.9833 40.5261C57.4381 41.7419 56.3139 42.5067 55.0958 42.6017L56.1355 55.9362ZM14.3737 65.0639C12.3024 62.7309 13.9176 59.2281 16.6651 59.0139L15.6253 45.6794C1.56099 46.776 -4.83628 63.5727 4.37205 73.944L14.3737 65.0639ZM46.4643 112.359C47.8074 106.913 46.3982 101.133 42.6675 96.9311L32.6659 105.811C33.4559 106.701 33.7743 107.957 33.4784 109.157L46.4643 112.359ZM42.7766 151.255C40.3242 152.498 37.1017 150.322 37.8932 147.112L24.9073 143.91C21.4886 157.772 35.7487 169.812 48.8232 163.185L42.7766 151.255ZM85.4798 144.606C86.4396 144.12 87.5604 144.12 88.5202 144.606L94.5668 132.676C89.8061 130.263 84.1939 130.263 79.4332 132.676L85.4798 144.606Z" fill="#9300fc3b"/>
</svg>
