<svg width="174" height="147" viewBox="0 0 174 147" fill="none" xmlns="http://www.w3.org/2000/svg">
<path d="M131.583 61.1641H124.896C124.896 64.8575 127.89 67.8516 131.583 67.8516V61.1641ZM146.068 122.25C142.871 124.1 141.779 128.191 143.628 131.388C145.477 134.585 149.568 135.677 152.765 133.828L146.068 122.25ZM51.4025 69.2698C54.9142 70.4138 58.6885 68.4943 59.8325 64.9826C60.9765 61.4708 59.057 57.6966 55.5453 56.5526L51.4025 69.2698ZM21.2347 133.828C24.4318 135.677 28.5227 134.585 30.3721 131.388C32.2215 128.191 31.129 124.1 27.9319 122.25L21.2347 133.828ZM87 78.9974L91.7288 74.2686C89.1171 71.657 84.8829 71.657 82.2712 74.2686L87 78.9974ZM80.3125 159.247C80.3125 162.941 83.3066 165.935 87 165.935C90.6934 165.935 93.6875 162.941 93.6875 159.247H80.3125ZM109.021 110.476C111.633 113.088 115.867 113.088 118.479 110.476C121.09 107.865 121.09 103.63 118.479 101.019L109.021 110.476ZM55.5212 101.019C52.9096 103.63 52.9096 107.865 55.5212 110.476C58.1329 113.088 62.3671 113.088 64.9788 110.476L55.5212 101.019ZM49.1042 52.2474C49.1042 31.3181 66.0707 14.3516 87 14.3516V0.976562C58.6839 0.976562 35.7292 23.9313 35.7292 52.2474H49.1042ZM87 14.3516C107.929 14.3516 124.896 31.3181 124.896 52.2474H138.271C138.271 23.9313 115.316 0.976562 87 0.976562V14.3516ZM124.896 52.2474V61.1641H138.271V52.2474H124.896ZM35.7292 52.2474V61.1641H49.1042V52.2474H35.7292ZM131.583 67.8516C147.588 67.8516 160.562 80.826 160.562 96.8307H173.938C173.938 73.4392 154.975 54.4766 131.583 54.4766V67.8516ZM160.562 96.8307C160.562 107.614 154.69 117.263 146.068 122.25L152.765 133.828C165.465 126.481 173.938 112.451 173.938 96.8307H160.562ZM13.4375 96.8307C13.4375 80.826 26.4119 67.8516 42.4167 67.8516V54.4766C19.0251 54.4766 0.0625 73.4392 0.0625 96.8307H13.4375ZM42.4167 67.8516C45.5642 67.8516 48.5819 68.3509 51.4025 69.2698L55.5453 56.5526C51.4034 55.2033 46.9883 54.4766 42.4167 54.4766V67.8516ZM27.9319 122.25C19.3101 117.263 13.4375 107.614 13.4375 96.8307H0.0625C0.0625 112.451 8.53494 126.481 21.2347 133.828L27.9319 122.25ZM80.3125 78.9974V159.247H93.6875V78.9974H80.3125ZM118.479 101.019L91.7288 74.2686L82.2712 83.7262L109.021 110.476L118.479 101.019ZM82.2712 74.2686L55.5212 101.019L64.9788 110.476L91.7288 83.7262L82.2712 74.2686Z" fill="#9300fc3b"/>
</svg>
