<svg width="130" height="160" viewBox="0 0 130 160" fill="none" xmlns="http://www.w3.org/2000/svg">
<path d="M63.3288 7.29302L63.2967 0.605593L63.3288 7.29302ZM64.9995 138.81C61.3061 138.81 58.312 141.804 58.312 145.497C58.312 149.191 61.3061 152.185 64.9995 152.185V138.81ZM65.0887 152.185C68.7821 152.185 71.7762 149.191 71.7762 145.497C71.7762 141.804 68.7821 138.81 65.0887 138.81V152.185ZM64.9996 13.9766C93.0756 13.9766 104.02 19.5497 109.483 29.4642C112.501 34.9421 114.298 42.4853 115.252 53.0323C116.203 63.5421 116.271 76.322 116.27 91.9973L129.645 91.9974C129.646 76.4644 129.589 63.0516 128.573 51.827C127.561 40.6397 125.549 30.9068 121.198 23.0098C111.922 6.17428 93.8872 0.601562 64.9996 0.601562V13.9766ZM64.9996 170.018C35.2313 170.018 24.5222 164.366 19.4494 154.66C16.6093 149.226 15.061 141.716 14.3322 131.107C13.6058 120.533 13.7286 107.752 13.7288 91.9974L0.35375 91.9973C0.353645 107.451 0.221903 120.862 0.988644 132.023C1.7529 143.148 3.4454 152.914 7.59572 160.855C16.5037 177.899 34.7739 183.393 64.9996 183.393V170.018ZM116.27 91.9973C116.27 107.752 116.393 120.533 115.667 131.107C114.938 141.716 113.389 149.226 110.549 154.66C105.477 164.366 94.7678 170.018 64.9996 170.018V183.393C95.2252 183.393 113.495 177.899 122.403 160.855C126.553 152.914 128.246 143.148 129.01 132.023C129.777 120.862 129.645 107.451 129.645 91.9974L116.27 91.9973ZM13.7288 91.9974C13.7289 76.3239 13.7947 63.5526 14.7197 53.0547C15.6483 42.5169 17.3972 34.9775 20.3359 29.5004C25.6272 19.6384 36.1655 14.1111 63.3609 13.9804L63.2967 0.605593C35.1797 0.740696 17.5744 6.35731 8.55013 23.1769C4.33104 31.0405 2.37921 40.7264 1.39636 51.8807C0.409992 63.0748 0.353857 76.4625 0.35375 91.9973L13.7288 91.9974ZM63.3609 13.9804C63.9014 13.9778 64.4475 13.9766 64.9996 13.9766V0.601562C64.4269 0.601562 63.8593 0.60289 63.2967 0.605593L63.3609 13.9804ZM64.9995 152.185H65.0887V138.81H64.9995V152.185Z" fill="#9300fc3b"/>
</svg>
