<svg width="207" height="103" viewBox="0 0 207 103" fill="none" xmlns="http://www.w3.org/2000/svg">
<path d="M167.416 81.1484C163.723 81.1484 160.729 84.1425 160.729 87.8359C160.729 91.5293 163.723 94.5234 167.416 94.5234V81.1484ZM185.249 125.732C181.556 125.732 178.562 128.726 178.562 132.419C178.562 136.113 181.556 139.107 185.249 139.107V125.732ZM149.583 54.3984C145.889 54.3984 142.895 57.3925 142.895 61.0859C142.895 64.7793 145.889 67.7734 149.583 67.7734V54.3984ZM149.583 0.898438C145.889 0.898438 142.895 3.89253 142.895 7.58594C142.895 11.2793 145.889 14.2734 149.583 14.2734V0.898438ZM42.5827 94.5234C46.2761 94.5234 49.2702 91.5293 49.2702 87.8359C49.2702 84.1425 46.2761 81.1484 42.5827 81.1484V94.5234ZM24.7493 139.107C28.4428 139.107 31.4368 136.113 31.4368 132.419C31.4368 128.726 28.4428 125.732 24.7493 125.732V139.107ZM60.416 67.7734C64.1094 67.7734 67.1035 64.7793 67.1035 61.0859C67.1035 57.3925 64.1094 54.3984 60.416 54.3984V67.7734ZM60.416 14.2734C64.1094 14.2734 67.1035 11.2793 67.1035 7.58594C67.1035 3.89253 64.1094 0.898438 60.416 0.898438V14.2734ZM209.77 119.044C209.77 109.945 204.538 100.506 197.242 93.5755C189.801 86.5089 179.303 81.1484 167.416 81.1484V94.5234C175.227 94.5234 182.562 98.0797 188.031 103.273C193.643 108.604 196.395 114.768 196.395 119.044H209.77ZM189.708 125.732H185.249V139.107H189.708V125.732ZM196.395 119.044C196.395 122.738 193.401 125.732 189.708 125.732V139.107C200.788 139.107 209.77 130.124 209.77 119.044H196.395ZM169.645 34.3359C169.645 45.4162 160.663 54.3984 149.583 54.3984V67.7734C168.05 67.7734 183.02 52.803 183.02 34.3359H169.645ZM149.583 14.2734C160.663 14.2734 169.645 23.2557 169.645 34.3359H183.02C183.02 15.8689 168.05 0.898438 149.583 0.898438V14.2734ZM145.124 125.732H64.8744V139.107H145.124V125.732ZM104.999 81.1484C91.039 81.1484 76.5216 83.4521 65.2274 89.0993C53.7436 94.8411 44.8119 104.569 44.8119 119.044H58.1869C58.1869 111.228 62.6301 105.352 71.2088 101.062C79.9771 96.6781 92.2097 94.5234 104.999 94.5234V81.1484ZM104.999 94.5234C117.789 94.5234 130.022 96.6781 138.79 101.062C147.369 105.352 151.812 111.228 151.812 119.044H165.187C165.187 104.569 156.255 94.8411 144.771 89.0993C133.477 83.4521 118.96 81.1484 104.999 81.1484V94.5234ZM44.8119 119.044C44.8119 130.124 53.7941 139.107 64.8744 139.107V125.732C61.1809 125.732 58.1869 122.738 58.1869 119.044H44.8119ZM151.812 119.044C151.812 122.738 148.818 125.732 145.124 125.732V139.107C156.205 139.107 165.187 130.124 165.187 119.044H151.812ZM125.062 34.3359C125.062 45.4161 116.08 54.3984 104.999 54.3984V67.7734C123.466 67.7734 138.437 52.803 138.437 34.3359H125.062ZM104.999 54.3984C93.9191 54.3984 84.9369 45.4162 84.9369 34.3359H71.5619C71.5619 52.803 86.5323 67.7734 104.999 67.7734V54.3984ZM84.9369 34.3359C84.9369 23.2557 93.9191 14.2734 104.999 14.2734V0.898438C86.5323 0.898438 71.5619 15.8689 71.5619 34.3359H84.9369ZM104.999 14.2734C116.08 14.2734 125.062 23.2557 125.062 34.3359H138.437C138.437 15.8689 123.466 0.898438 104.999 0.898438V14.2734ZM13.6035 119.044C13.6035 114.768 16.3557 108.604 21.968 103.273C27.4364 98.0797 34.7718 94.5234 42.5827 94.5234V81.1484C30.6954 81.1484 20.1975 86.5089 12.7571 93.5755C5.46062 100.506 0.228516 109.945 0.228516 119.044H13.6035ZM20.291 139.107H24.7493V125.732H20.291V139.107ZM0.228516 119.044C0.228516 130.124 9.2108 139.107 20.291 139.107V125.732C16.5976 125.732 13.6035 122.738 13.6035 119.044H0.228516ZM26.9785 34.3359C26.9785 52.803 41.949 67.7734 60.416 67.7734V54.3984C49.3358 54.3984 40.3535 45.4162 40.3535 34.3359H26.9785ZM60.416 0.898438C41.949 0.898438 26.9785 15.8689 26.9785 34.3359H40.3535C40.3535 23.2557 49.3358 14.2734 60.416 14.2734V0.898438Z" fill="#9300fc3b"/>
</svg>
