<svg width="174" height="120" viewBox="0 0 174 120" fill="none" xmlns="http://www.w3.org/2000/svg">
<path d="M124.83 23.9494L129.559 28.6782L129.559 28.6782L124.83 23.9494ZM121.243 27.5368L125.971 32.2656L121.243 27.5368ZM150.05 36.5595L154.779 31.8307V31.8307L150.05 36.5595ZM137.44 23.9494L132.711 28.6782L132.711 28.6782L137.44 23.9494ZM146.463 52.7564L151.192 57.4852L151.192 57.4852L146.463 52.7564ZM150.05 49.1696L145.321 44.4408L145.321 44.4408L150.05 49.1696ZM158.333 69.1667V62.4792H158.333L158.333 69.1667ZM153.262 69.1667V75.8542V69.1667ZM150.05 124.83L154.779 120.101L150.05 124.83ZM146.463 121.243L141.734 125.972L141.734 125.972L146.463 121.243ZM137.44 150.05L132.711 145.321L137.44 150.05ZM150.05 137.44L154.779 142.169L150.05 137.44ZM121.243 146.463L125.972 141.734V141.734L121.243 146.463ZM124.83 150.05L120.101 154.779H120.101L124.83 150.05ZM49.1694 150.05L53.8982 154.779H53.8982L49.1694 150.05ZM52.7564 146.463L57.4852 151.192H57.4852L52.7564 146.463ZM23.9493 137.44L28.6781 132.711L28.6781 132.711L23.9493 137.44ZM36.5594 150.05L31.8306 154.779H31.8306L36.5594 150.05ZM27.5368 121.243L32.2656 125.971L32.2656 125.971L27.5368 121.243ZM23.9493 124.83L28.6781 129.559L23.9493 124.83ZM20.7382 69.1667V62.4792H20.7382L20.7382 69.1667ZM15.6667 69.1667V75.8542H15.6667L15.6667 69.1667ZM23.9494 49.1696L19.2207 53.8984H19.2207L23.9494 49.1696ZM27.5368 52.757L32.2656 48.0282L27.5368 52.757ZM36.5595 23.9495L41.2883 28.6782L36.5595 23.9495ZM23.9494 36.5595L28.6782 41.2883H28.6782L23.9494 36.5595ZM52.7569 27.5368L48.0282 32.2656V32.2656L52.7569 27.5368ZM49.1696 23.9495L53.8984 19.2207L53.8984 19.2207L49.1696 23.9495ZM63.0834 29.3296L65.6477 35.5059L63.0834 29.3296ZM29.3296 63.0834L35.5059 65.6477L29.3296 63.0834ZM29.3295 110.916L35.5059 108.352H35.5059L29.3295 110.916ZM63.0832 144.67L65.6475 138.494H65.6475L63.0832 144.67ZM110.917 144.67L108.352 138.494L110.917 144.67ZM144.67 110.917L150.847 113.481V113.481L144.67 110.917ZM144.67 63.0832L138.494 65.6475V65.6475L144.67 63.0832ZM110.916 29.3295L108.352 35.5059V35.5059L110.916 29.3295ZM95.9167 0.0625H78.0833V13.4375H95.9167V0.0625ZM111.521 20.7383V15.6667H98.1458V20.7383H111.521ZM120.101 19.2207L116.514 22.808L125.971 32.2656L129.559 28.6782L120.101 19.2207ZM154.779 31.8307L142.169 19.2207L132.711 28.6782L145.321 41.2883L154.779 31.8307ZM151.192 57.4852L154.779 53.8983L145.321 44.4408L141.734 48.0276L151.192 57.4852ZM158.333 62.4792L153.262 62.4792L153.262 75.8542H158.333L158.333 62.4792ZM173.938 95.9167V78.0833H160.562V95.9167H173.938ZM153.262 111.521H158.333V98.1458H153.262V111.521ZM154.779 120.101L151.192 116.514L141.734 125.972L145.321 129.559L154.779 120.101ZM142.169 154.779L154.779 142.169L145.321 132.711L132.711 145.321L142.169 154.779ZM116.514 151.192L120.101 154.779L129.559 145.321L125.972 141.734L116.514 151.192ZM111.521 158.333V153.262H98.1458V158.333H111.521ZM78.0833 173.938H95.9167V160.562H78.0833V173.938ZM62.4792 153.262V158.333H75.8542V153.262H62.4792ZM53.8982 154.779L57.4852 151.192L48.0276 141.734L44.4407 145.321L53.8982 154.779ZM19.2205 142.169L31.8306 154.779L41.2881 145.321L28.6781 132.711L19.2205 142.169ZM22.808 116.514L19.2205 120.101L28.6781 129.559L32.2656 125.971L22.808 116.514ZM15.6667 111.521H20.7383V98.1458H15.6667V111.521ZM0.0625 78.0833V95.9167H13.4375V78.0833H0.0625ZM20.7382 62.4792L15.6667 62.4792L15.6667 75.8542L20.7382 75.8542L20.7382 62.4792ZM19.2207 53.8984L22.808 57.4858L32.2656 48.0282L28.6782 44.4408L19.2207 53.8984ZM31.8307 19.2207L19.2207 31.8308L28.6782 41.2883L41.2883 28.6782L31.8307 19.2207ZM57.4857 22.808L53.8984 19.2207L44.4408 28.6782L48.0282 32.2656L57.4857 22.808ZM62.4792 15.6667V20.7381H75.8542V15.6667H62.4792ZM65.6477 35.5059C71.2662 33.1732 75.8542 27.6648 75.8542 20.7381H62.4792C62.4792 21.4409 61.9467 22.5606 60.5191 23.1533L65.6477 35.5059ZM48.0282 32.2656C52.8953 37.1327 59.9735 37.8617 65.6477 35.5059L60.5191 23.1533C59.1444 23.724 58.0154 23.3378 57.4857 22.808L48.0282 32.2656ZM41.2883 28.6782C42.1588 27.8077 43.5703 27.8077 44.4408 28.6782L53.8984 19.2207C47.8046 13.1269 37.9245 13.1269 31.8307 19.2207L41.2883 28.6782ZM28.6782 44.4408C27.8077 43.5703 27.8077 42.1589 28.6782 41.2883L19.2207 31.8308C13.1269 37.9246 13.1269 47.8046 19.2207 53.8984L28.6782 44.4408ZM35.5059 65.6477C37.8617 59.9735 37.1327 52.8953 32.2656 48.0282L22.808 57.4858C23.3377 58.0155 23.724 59.1444 23.1533 60.5191L35.5059 65.6477ZM20.7382 75.8542C27.6648 75.8542 33.1732 71.2662 35.5059 65.6477L23.1533 60.5191C22.5606 61.9467 21.4409 62.4792 20.7382 62.4792V75.8542ZM13.4375 78.0833C13.4375 76.8522 14.4355 75.8542 15.6667 75.8542V62.4792C7.04872 62.4792 0.0625 69.4654 0.0625 78.0833H13.4375ZM15.6667 98.1458C14.4355 98.1458 13.4375 97.1478 13.4375 95.9167H0.0625C0.0625 104.535 7.04872 111.521 15.6667 111.521V98.1458ZM35.5059 108.352C33.1732 102.734 27.6648 98.1458 20.7383 98.1458V111.521C21.4409 111.521 22.5605 112.053 23.1532 113.481L35.5059 108.352ZM32.2656 125.971C37.1325 121.104 37.8616 114.026 35.5059 108.352L23.1532 113.481C23.7239 114.855 23.3376 115.984 22.808 116.514L32.2656 125.971ZM28.6781 132.711C27.8075 131.841 27.8075 130.429 28.6781 129.559L19.2205 120.101C13.1267 126.195 13.1267 136.075 19.2205 142.169L28.6781 132.711ZM44.4407 145.321C43.5701 146.192 42.1587 146.192 41.2881 145.321L31.8306 154.779C37.9244 160.873 47.8044 160.873 53.8982 154.779L44.4407 145.321ZM65.6475 138.494C59.9733 136.138 52.8948 136.867 48.0276 141.734L57.4852 151.192C58.015 150.662 59.1441 150.276 60.5189 150.847L65.6475 138.494ZM75.8542 153.262C75.8542 146.335 71.2661 140.827 65.6475 138.494L60.5189 150.847C61.9467 151.439 62.4792 152.559 62.4792 153.262H75.8542ZM78.0833 160.562C76.8522 160.562 75.8542 159.564 75.8542 158.333H62.4792C62.4792 166.951 69.4654 173.938 78.0833 173.938V160.562ZM98.1458 158.333C98.1458 159.564 97.1478 160.562 95.9167 160.562V173.938C104.535 173.938 111.521 166.951 111.521 158.333H98.1458ZM108.352 138.494C102.734 140.827 98.1458 146.335 98.1458 153.262H111.521C111.521 152.559 112.053 151.439 113.481 150.847L108.352 138.494ZM125.972 141.734C121.105 136.867 114.026 136.138 108.352 138.494L113.481 150.847C114.856 150.276 115.985 150.662 116.514 151.192L125.972 141.734ZM132.711 145.321C131.841 146.192 130.429 146.192 129.559 145.321L120.101 154.779C126.195 160.873 136.075 160.873 142.169 154.779L132.711 145.321ZM145.321 129.559C146.192 130.429 146.192 131.841 145.321 132.711L154.779 142.169C160.873 136.075 160.873 126.195 154.779 120.101L145.321 129.559ZM138.494 108.352C136.138 114.026 136.867 121.105 141.734 125.972L151.192 116.514C150.662 115.985 150.276 114.856 150.847 113.481L138.494 108.352ZM153.262 98.1458C146.335 98.1458 140.827 102.734 138.494 108.352L150.847 113.481C151.439 112.053 152.559 111.521 153.262 111.521V98.1458ZM160.562 95.9167C160.562 97.1478 159.564 98.1458 158.333 98.1458V111.521C166.951 111.521 173.938 104.535 173.938 95.9167H160.562ZM158.333 75.8542C159.564 75.8542 160.562 76.8522 160.562 78.0833H173.938C173.938 69.4654 166.951 62.4792 158.333 62.4792V75.8542ZM138.494 65.6475C140.827 71.2661 146.335 75.8542 153.262 75.8542V62.4792C152.559 62.4792 151.439 61.9467 150.847 60.5189L138.494 65.6475ZM141.734 48.0276C136.867 52.8948 136.138 59.9733 138.494 65.6475L150.847 60.5189C150.276 59.1441 150.662 58.015 151.192 57.4852L141.734 48.0276ZM145.321 41.2883C146.192 42.1588 146.192 43.5702 145.321 44.4408L154.779 53.8983C160.873 47.8046 160.873 37.9246 154.779 31.8307L145.321 41.2883ZM129.559 28.6782C130.429 27.8077 131.841 27.8077 132.711 28.6782L142.169 19.2207C136.075 13.1269 126.195 13.1269 120.101 19.2207L129.559 28.6782ZM108.352 35.5059C114.026 37.8616 121.104 37.1325 125.971 32.2656L116.514 22.808C115.984 23.3376 114.855 23.7239 113.481 23.1532L108.352 35.5059ZM98.1458 20.7383C98.1458 27.6648 102.734 33.1732 108.352 35.5059L113.481 23.1532C112.053 22.5605 111.521 21.4409 111.521 20.7383H98.1458ZM78.0833 0.0625C69.4654 0.0625 62.4792 7.04872 62.4792 15.6667H75.8542C75.8542 14.4355 76.8522 13.4375 78.0833 13.4375V0.0625ZM95.9167 13.4375C97.1478 13.4375 98.1458 14.4355 98.1458 15.6667H111.521C111.521 7.04872 104.535 0.0625 95.9167 0.0625V13.4375ZM98.1458 87C98.1458 93.1557 93.1557 98.1458 87 98.1458V111.521C100.542 111.521 111.521 100.542 111.521 87H98.1458ZM87 98.1458C80.8443 98.1458 75.8542 93.1557 75.8542 87H62.4792C62.4792 100.542 73.4575 111.521 87 111.521V98.1458ZM75.8542 87C75.8542 80.8443 80.8443 75.8542 87 75.8542V62.4792C73.4575 62.4792 62.4792 73.4575 62.4792 87H75.8542ZM87 75.8542C93.1557 75.8542 98.1458 80.8443 98.1458 87H111.521C111.521 73.4575 100.542 62.4792 87 62.4792V75.8542Z" fill="#9300fc3b"/>
</svg>
