<svg width="184" height="138" viewBox="0 0 184 138" fill="none" xmlns="http://www.w3.org/2000/svg">
<path d="M20.666 13.0663L17.1611 7.37082V7.37082L20.666 13.0663ZM163.333 13.0663L166.838 7.37082V7.37082L163.333 13.0663ZM159.828 103.396C156.682 105.332 155.701 109.451 157.637 112.597C159.573 115.742 163.692 116.723 166.838 114.787L159.828 103.396ZM17.1611 114.787C20.3066 116.723 24.4258 115.742 26.3615 112.597C28.2972 109.451 27.3164 105.332 24.1709 103.396L17.1611 114.787ZM24.1709 18.7617C23.7836 19.0001 23.8836 18.8524 25.171 18.5304C26.2536 18.2596 27.7627 17.9634 29.7108 17.6586C33.5935 17.0511 38.8456 16.4671 45.1646 15.9599C57.7819 14.9471 74.3205 14.2666 91.9993 14.2666V0.891602C74.0115 0.891602 57.1126 1.58285 44.0945 2.62778C37.5958 3.14942 31.9807 3.76574 27.6434 4.44433C25.4814 4.78258 23.5423 5.15077 21.9255 5.55515C20.5135 5.90834 18.663 6.44655 17.1611 7.37082L24.1709 18.7617ZM91.9993 14.2666C109.678 14.2666 126.217 14.9471 138.834 15.9599C145.153 16.4671 150.405 17.0511 154.288 17.6586C156.236 17.9634 157.745 18.2596 158.828 18.5304C160.115 18.8524 160.215 19.0001 159.828 18.7617L166.838 7.37082C165.336 6.44655 163.485 5.90834 162.073 5.55515C160.456 5.15077 158.517 4.78258 156.355 4.44433C152.018 3.76574 146.403 3.14942 139.904 2.62778C126.886 1.58285 109.987 0.891602 91.9993 0.891602V14.2666ZM159.828 18.7617C158.98 18.24 158.859 17.7664 159.215 18.3793C159.487 18.8467 159.868 19.6586 160.311 20.8958C161.193 23.3554 162.09 26.837 162.89 31.1032C164.484 39.603 165.562 50.5074 165.562 61.0791H178.937C178.937 49.7021 177.786 37.9718 176.036 28.6383C175.164 23.9878 174.11 19.7531 172.902 16.3826C172.301 14.7047 171.602 13.0731 170.777 11.6543C170.036 10.381 168.8 8.57842 166.838 7.37082L159.828 18.7617ZM165.562 61.0791C165.562 71.6508 164.484 82.5552 162.89 91.055C162.09 95.3212 161.193 98.8028 160.311 101.262C159.868 102.5 159.487 103.311 159.215 103.779C158.859 104.392 158.98 103.918 159.828 103.396L166.838 114.787C168.8 113.58 170.036 111.777 170.777 110.504C171.602 109.085 172.301 107.453 172.902 105.776C174.11 102.405 175.164 98.1704 176.036 93.5199C177.786 84.1863 178.937 72.4561 178.937 61.0791H165.562ZM24.1709 103.396C25.0187 103.918 25.14 104.392 24.7835 103.779C24.5116 103.311 24.1307 102.5 23.6872 101.262C22.8055 98.8028 21.9087 95.3212 21.1088 91.055C19.515 82.5552 18.4368 71.6508 18.4368 61.0791H5.06185C5.06185 72.4561 6.21281 84.1863 7.96285 93.5199C8.83482 98.1704 9.88847 102.405 11.0966 105.776C11.6981 107.453 12.3969 109.085 13.2222 110.504C13.9628 111.777 15.1988 113.58 17.1611 114.787L24.1709 103.396ZM18.4368 61.0791C18.4368 50.5074 19.515 39.603 21.1088 31.1032C21.9087 26.837 22.8055 23.3554 23.6872 20.8958C24.1307 19.6586 24.5116 18.8467 24.7835 18.3793C25.14 17.7664 25.0187 18.24 24.1709 18.7617L17.1611 7.37082C15.1988 8.57842 13.9628 10.381 13.2222 11.6543C12.3969 13.0731 11.6981 14.7047 11.0966 16.3826C9.88847 19.7531 8.83482 23.9878 7.96285 28.6383C6.21281 37.9718 5.06185 49.7021 5.06185 61.0791H18.4368ZM18.4368 116.808H165.562V103.433H18.4368V116.808ZM165.562 125.725H18.4368V139.1H165.562V125.725ZM18.4368 125.725C15.9746 125.725 13.9785 123.729 13.9785 121.267H0.603516C0.603516 131.116 8.58777 139.1 18.4368 139.1V125.725ZM170.02 121.267C170.02 123.729 168.024 125.725 165.562 125.725V139.1C175.411 139.1 183.395 131.116 183.395 121.267H170.02ZM165.562 116.808C168.024 116.808 170.02 118.804 170.02 121.267H183.395C183.395 111.418 175.411 103.433 165.562 103.433V116.808ZM18.4368 103.433C8.58777 103.433 0.603516 111.418 0.603516 121.267H13.9785C13.9785 118.804 15.9746 116.808 18.4368 116.808V103.433Z" fill="#9300fc3b"/>
</svg>
