<svg width="622" height="622" viewBox="0 0 622 622" fill="none" xmlns="http://www.w3.org/2000/svg">
<path d="M538.811 393.755C560.808 333.32 557.896 266.619 530.714 208.331C503.535 150.042 454.311 104.937 393.875 82.9399C333.44 60.9431 266.74 63.8555 208.451 91.0347C150.162 118.216 105.057 167.44 83.0601 227.875L310.936 310.815L538.811 393.755Z" fill="url(#paint0_angular_149_750)"/>
<path d="M83.0601 227.876C61.0633 288.311 63.9755 355.012 91.1572 413.3C118.336 471.589 167.56 516.694 227.996 538.691C288.431 560.688 355.131 557.775 413.42 530.596C471.709 503.415 516.814 454.191 538.811 393.755L310.936 310.816L83.0601 227.876Z" fill="url(#paint1_angular_149_750)"/>
<g style="mix-blend-mode:overlay" clip-path="url(#clip0_149_750)">
<path d="M378.138 433.433C376.939 436.726 374.482 439.408 371.305 440.889C368.129 442.37 364.494 442.529 361.201 441.33L274.278 409.693C248.159 400.11 226.897 380.577 215.139 355.363C203.382 330.149 202.084 301.306 211.533 275.139L211.658 274.794C221.171 248.583 240.696 227.218 265.947 215.39C291.199 203.562 320.112 202.237 346.339 211.707L346.684 211.832C363.594 218.007 378.644 228.403 390.405 242.033C402.166 255.662 410.247 272.071 413.881 289.703C414.085 290.715 414.279 291.73 414.459 292.749C415.699 299.917 416.192 307.194 415.931 314.464C415.888 316.73 415.701 318.982 415.472 321.242C415.142 324.294 414.724 327.376 414.141 330.437C413.903 331.671 413.651 332.9 413.366 334.132C412.309 337.018 410.286 339.45 407.641 341.016C404.995 342.582 401.889 343.184 398.85 342.721C395.811 342.259 393.026 340.76 390.965 338.478C388.905 336.197 387.697 333.273 387.546 330.203C387.512 329.58 387.525 328.955 387.586 328.334C387.807 327.361 388.01 326.395 388.183 325.427C388.515 323.72 388.782 322.02 388.991 320.307C390.071 311.397 389.624 302.368 387.67 293.608C386.757 289.531 385.521 285.534 383.974 281.654C382.859 278.832 381.575 276.079 380.131 273.411C370.974 256.351 355.847 243.268 337.645 236.667L337.3 236.541C318.884 229.899 298.652 230.372 280.567 237.868C278.064 238.894 275.618 240.053 273.24 241.342C256.18 250.498 243.097 265.625 236.495 283.826C236.453 283.943 236.413 284.054 236.37 284.171C229.848 302.267 230.189 322.126 237.328 339.988C238.322 342.503 239.45 344.964 240.708 347.358C249.743 364.726 264.938 378.093 283.315 384.842L370.238 416.48C373.531 417.678 376.214 420.136 377.695 423.312C379.176 426.488 379.335 430.123 378.136 433.416L378.138 433.433Z" fill="#2F2F2F" fill-opacity="0.5"/>
<path d="M459.769 363.677C459.578 364.201 459.387 364.725 459.141 365.23C455.659 373.636 450.122 381.034 443.037 386.743C436.119 392.311 427.954 396.119 419.241 397.839C410.078 399.657 400.601 399.079 391.726 396.16C391.154 395.952 390.581 395.744 390.002 395.533L292.365 359.996C283.635 356.772 275.926 351.269 270.041 344.058C264.304 337.062 260.476 328.7 258.929 319.786C257.382 310.872 258.168 301.709 261.212 293.189C261.255 293.072 261.295 292.962 261.338 292.844C266.072 279.819 275.768 269.197 288.308 263.297C300.849 257.397 315.215 256.698 328.268 261.354L328.613 261.48C337.309 264.64 345.015 270.043 350.949 277.142C356.883 284.242 360.833 292.784 362.401 301.902C362.789 304.142 363.027 306.406 363.115 308.677C363.19 310.315 363.178 311.958 363.091 313.615L362.992 314.079C362.873 314.598 362.721 315.108 362.537 315.608C361.857 317.49 360.76 319.192 359.326 320.588C357.651 322.219 355.576 323.381 353.31 323.957C351.044 324.533 348.666 324.503 346.415 323.869C344.164 323.236 342.12 322.022 340.486 320.349C338.852 318.676 337.688 316.602 337.109 314.337C336.89 313.498 336.758 312.638 336.714 311.772C336.739 311.211 336.745 310.658 336.73 310.097C336.588 304.874 334.88 299.813 331.826 295.573C328.772 291.332 324.514 288.108 319.604 286.318L319.259 286.192C312.792 283.939 305.698 284.322 299.512 287.26C293.325 290.197 288.545 295.451 286.203 301.887C286.16 302.004 286.12 302.114 286.077 302.232C283.842 308.64 284.196 315.667 287.064 321.818C289.933 327.969 295.089 332.758 301.434 335.165L400.775 371.322C407.209 372.952 414.055 372.216 420.106 369.489C426.157 366.76 431.319 362.141 434.358 356.24L435.613 352.791C435.936 351.91 436.213 351.012 436.444 350.102C436.454 350.084 436.461 350.066 436.464 350.047C438.46 343.663 439.968 337.137 440.975 330.525C442.373 321.371 442.789 312.095 442.219 302.853C442.181 302.183 442.137 301.511 442.079 300.833C441.354 291.313 439.59 281.9 436.819 272.763C436.794 272.66 436.76 272.562 436.728 272.456C433.105 260.593 427.832 249.299 421.064 238.904L420.889 238.637C405.336 214.818 382.466 196.695 355.722 186.997L355.377 186.872C347.028 183.851 338.394 181.682 329.608 180.399C320.43 179.047 311.134 178.683 301.878 179.313C291.837 179.987 281.906 181.812 272.282 184.752L271.833 184.588L271.71 184.927C259.957 188.573 248.77 193.838 238.47 200.57L237.959 200.384L237.708 201.074C221.672 211.699 208.17 225.721 198.157 242.146C193.609 249.622 189.812 257.53 186.822 265.754L186.696 266.099C183.763 274.214 181.631 282.596 180.33 291.125C177.442 310.143 178.773 329.564 184.227 348.011L183.976 348.701L184.487 348.887C188.05 360.665 193.236 371.889 199.895 382.237L199.772 382.575L200.22 382.738C205.704 391.177 212.138 398.958 219.397 405.929C226.083 412.36 233.438 418.057 241.337 422.922C248.893 427.586 256.9 431.474 265.238 434.527L302.491 448.086C305.784 449.285 308.466 451.743 309.948 454.919C311.429 458.095 311.588 461.73 310.389 465.023C309.19 468.316 306.733 470.999 303.556 472.48C300.38 473.961 296.745 474.119 293.452 472.921L256.199 459.362C247.882 456.316 239.833 452.582 232.137 448.198C215.715 438.84 201.117 426.595 189.043 412.052C187.046 409.654 185.128 407.203 183.289 404.7C170.559 387.384 161.467 367.671 156.562 346.747C155.881 343.895 155.29 341.005 154.788 338.077C151.509 319.498 151.608 300.479 155.081 281.935C156.665 273.474 158.933 265.155 161.862 257.06L161.987 256.715C164.972 248.51 168.624 240.564 172.908 232.956C182.167 216.518 194.316 201.885 208.771 189.76C211.028 187.853 213.338 186.019 215.702 184.26C232.907 171.379 252.545 162.121 273.429 157.045C276.457 156.309 279.501 155.664 282.562 155.111C301.159 151.732 320.213 151.735 338.808 155.123C347.522 156.711 356.087 159.024 364.416 162.037L364.761 162.163C372.967 165.147 380.913 168.8 388.521 173.084C404.96 182.343 419.593 194.492 431.718 208.947C433.897 211.547 435.996 214.215 438.017 216.95C450.479 233.904 459.458 253.159 464.435 273.604C465.234 276.904 465.928 280.227 466.518 283.573C471.003 309.088 469.123 335.315 461.046 359.931C460.645 361.16 460.216 362.426 459.769 363.677Z" fill="#2F2F2F" fill-opacity="0.5"/>
</g>
<defs>
<radialGradient id="paint0_angular_149_750" cx="0" cy="0" r="1" gradientUnits="userSpaceOnUse" gradientTransform="translate(427.795 353.349) rotate(-160) scale(124.359 264.149)">
<stop stop-color="#9300FC"/>
<stop offset="1" stop-color="#161616"/>
</radialGradient>
<radialGradient id="paint1_angular_149_750" cx="0" cy="0" r="1" gradientUnits="userSpaceOnUse" gradientTransform="translate(192.129 267.573) rotate(20) scale(126.432 268.552)">
<stop stop-color="#9300FC"/>
<stop offset="1" stop-color="#161616"/>
</radialGradient>
<clipPath id="clip0_149_750">
<rect width="405" height="405" fill="white" transform="translate(189.47 50.9521) rotate(20)"/>
</clipPath>
</defs>
</svg>
