<svg width="262" height="85" viewBox="0 0 262 85" fill="none" xmlns="http://www.w3.org/2000/svg">
<g clip-path="url(#clip0_642_2343)">
<path d="M25.3357 15.1338V32.6343H27.3832V19.9773C27.3982 19.1808 27.3682 18.3753 27.2812 17.5788H27.3592C27.5077 17.9613 27.6952 18.3288 27.9142 18.6723L36.9142 32.6253H39.4222V15.1338H37.3837V27.4383C37.3597 28.2978 37.4077 29.1573 37.5082 30.0093H37.4617C37.3522 29.7978 37.1107 29.4078 36.7507 28.8378L27.9922 15.1353L25.3357 15.1338ZM43.9613 15.1338V32.6343H53.2657L53.2733 30.7128H46.0537V24.6423H52.3747V22.7988H46.0537V16.9863H52.8352V15.1353L43.9613 15.1338ZM54.8363 15.1338V16.9848H59.8672V32.6328H61.9147V16.9848H67.0012V15.1338H54.8363ZM20.3047 30.1338C19.9612 30.1413 19.6327 30.2898 19.3912 30.5478C19.1407 30.7983 19.0012 31.1493 19.0012 31.5093C18.9937 31.8693 19.1422 32.2128 19.3912 32.4708C19.6402 32.7288 19.9927 32.8773 20.3527 32.8698C20.7202 32.8698 21.0637 32.7288 21.3142 32.4708C21.5722 32.2203 21.7207 31.8693 21.7207 31.5093C21.7207 31.1493 21.5722 30.7983 21.3142 30.5478C21.0637 30.2823 20.7202 30.1338 20.3527 30.1338C20.3377 30.1338 20.3212 30.1338 20.3062 30.1338H20.3047Z" fill="white"/>
</g>
<path d="M1.8 60.2H8.352C10.624 60.2 12.52 61.016 14.04 62.648C15.56 64.264 16.32 66.248 16.32 68.6C16.32 70.936 15.56 72.928 14.04 74.576C12.52 76.192 10.624 77 8.352 77H1.8V60.2ZM4.032 74.888H8.352C10.064 74.888 11.464 74.288 12.552 73.088C13.64 71.872 14.184 70.376 14.184 68.6C14.184 66.824 13.64 65.328 12.552 64.112C11.464 62.912 10.064 62.312 8.352 62.312H4.032V74.888ZM28.9386 75.488C27.7226 76.704 26.2266 77.312 24.4506 77.312C22.6746 77.312 21.1786 76.704 19.9626 75.488C18.7466 74.272 18.1386 72.776 18.1386 71C18.1386 69.224 18.7466 67.728 19.9626 66.512C21.1786 65.296 22.6746 64.688 24.4506 64.688C26.2266 64.688 27.7226 65.296 28.9386 66.512C30.1706 67.744 30.7866 69.24 30.7866 71C30.7866 72.76 30.1706 74.256 28.9386 75.488ZM24.4506 75.272C25.6506 75.272 26.6586 74.864 27.4746 74.048C28.2906 73.232 28.6986 72.216 28.6986 71C28.6986 69.784 28.2906 68.768 27.4746 67.952C26.6586 67.136 25.6506 66.728 24.4506 66.728C23.2666 66.728 22.2666 67.136 21.4506 67.952C20.6346 68.768 20.2266 69.784 20.2266 71C20.2266 72.216 20.6346 73.232 21.4506 74.048C22.2666 74.864 23.2666 75.272 24.4506 75.272ZM39.5183 65V67.016H36.3263V73.52C36.3263 74.112 36.4383 74.536 36.6623 74.792C36.9023 75.032 37.2623 75.16 37.7422 75.176C38.2222 75.176 38.8143 75.16 39.5183 75.128V77C37.6783 77.24 36.3343 77.088 35.4863 76.544C34.6543 76 34.2383 74.992 34.2383 73.52V67.016H31.8623V65H34.2383V62.264L36.3263 61.64V65H39.5183ZM58.7166 72.728V60.2H60.9486V77H59.1486L50.5086 64.448V77H48.2766V60.2H50.0766L58.7166 72.728ZM75.8462 71.96H65.7902C65.9982 73.016 66.4862 73.848 67.2542 74.456C68.0222 75.048 68.9822 75.344 70.1342 75.344C71.7182 75.344 72.8702 74.76 73.5902 73.592L75.3662 74.6C74.1822 76.408 72.4222 77.312 70.0862 77.312C68.1982 77.312 66.6462 76.72 65.4302 75.536C64.2462 74.32 63.6542 72.808 63.6542 71C63.6542 69.176 64.2382 67.672 65.4062 66.488C66.5742 65.288 68.0862 64.688 69.9422 64.688C71.7022 64.688 73.1342 65.312 74.2382 66.56C75.3582 67.776 75.9182 69.264 75.9182 71.024C75.9182 71.328 75.8942 71.64 75.8462 71.96ZM69.9422 66.656C68.8382 66.656 67.9102 66.968 67.1582 67.592C66.4222 68.216 65.9662 69.064 65.7902 70.136H73.8062C73.6302 69.032 73.1902 68.176 72.4862 67.568C71.7822 66.96 70.9342 66.656 69.9422 66.656ZM84.4948 65V67.016H81.3028V73.52C81.3028 74.112 81.4148 74.536 81.6388 74.792C81.8788 75.032 82.2388 75.16 82.7188 75.176C83.1988 75.176 83.7908 75.16 84.4948 75.128V77C82.6548 77.24 81.3108 77.088 80.4628 76.544C79.6308 76 79.2148 74.992 79.2148 73.52V67.016H76.8388V65H79.2148V62.264L81.3028 61.64V65H84.4948Z" fill="white"/>
<path d="M174 0H126V48H174V0Z" fill="white"/>
<path d="M157.214 35.8116C157.572 36.5385 158.128 37.1495 158.818 37.5741C159.508 37.9987 160.304 38.2197 161.114 38.2116C162.749 38.2116 163.795 37.3941 163.795 36.2616C163.795 34.9116 162.721 34.4286 160.921 33.6411L159.934 33.2181C157.084 32.0046 155.194 30.4851 155.194 27.2721C155.194 24.3126 157.444 22.0581 160.973 22.0581C162.116 21.9756 163.257 22.2313 164.255 22.7934C165.254 23.3554 166.064 24.1989 166.586 25.2186L163.501 27.1911C163.3 26.6855 162.95 26.2529 162.497 25.9507C162.045 25.6486 161.511 25.4911 160.967 25.4991C160.73 25.4754 160.49 25.5013 160.263 25.5753C160.036 25.6493 159.828 25.7697 159.65 25.9289C159.472 26.0881 159.33 26.2825 159.231 26.4998C159.133 26.7172 159.081 26.9526 159.079 27.1911C159.079 28.3746 159.812 28.8546 161.506 29.5911L162.493 30.0141C165.847 31.4526 167.743 32.9181 167.743 36.2136C167.743 39.7671 164.951 41.7141 161.203 41.7141C159.742 41.8072 158.286 41.4756 157.01 40.7593C155.733 40.0431 154.692 38.9728 154.01 37.6776L157.214 35.8116ZM143.272 36.1536C143.891 37.2531 144.455 38.1831 145.811 38.1831C147.107 38.1831 147.926 37.6761 147.926 35.7036V22.2831H151.873V35.7561C151.873 39.8421 149.473 41.7021 145.979 41.7021C144.744 41.7696 143.518 41.4619 142.461 40.8193C141.404 40.1768 140.567 39.2296 140.059 38.1021L143.272 36.1536Z" fill="black"/>
<path d="M142.168 77.312C140.936 77.312 139.856 77.056 138.928 76.544C138.016 76.016 137.344 75.272 136.912 74.312L138.808 73.208C139.32 74.488 140.44 75.128 142.168 75.128C143.256 75.128 144.096 74.872 144.688 74.36C145.296 73.832 145.6 73.072 145.6 72.08V60.2H147.808V72.08C147.808 73.76 147.272 75.056 146.2 75.968C145.128 76.864 143.784 77.312 142.168 77.312ZM156.607 77.312C155.039 77.312 153.695 76.952 152.575 76.232C151.471 75.496 150.695 74.48 150.247 73.184L152.167 72.08C152.807 74.112 154.303 75.128 156.655 75.128C157.791 75.128 158.663 74.896 159.271 74.432C159.895 73.968 160.207 73.336 160.207 72.536C160.207 71.752 159.903 71.152 159.295 70.736C158.751 70.368 157.735 69.944 156.247 69.464L154.639 68.936C154.287 68.792 153.823 68.584 153.247 68.312C152.687 68.024 152.279 67.736 152.023 67.448C151.319 66.68 150.967 65.744 150.967 64.64C150.967 63.168 151.479 62.016 152.503 61.184C153.527 60.32 154.775 59.888 156.247 59.888C157.559 59.888 158.711 60.216 159.703 60.872C160.695 61.528 161.439 62.424 161.935 63.56L160.063 64.64C159.343 62.912 158.071 62.048 156.247 62.048C155.335 62.048 154.599 62.272 154.039 62.72C153.479 63.168 153.199 63.776 153.199 64.544C153.199 65.28 153.463 65.84 153.991 66.224C154.535 66.624 155.447 67.024 156.727 67.424L157.711 67.736C158.255 67.944 158.551 68.056 158.599 68.072C159.111 68.264 159.671 68.528 160.279 68.864C160.711 69.104 161.143 69.472 161.575 69.968C162.135 70.528 162.415 71.368 162.415 72.488C162.415 73.96 161.879 75.136 160.807 76.016C159.719 76.88 158.319 77.312 156.607 77.312Z" fill="white"/>
<g clip-path="url(#clip1_642_2343)">
<path d="M261.094 21.8594L240.133 0.905922C238.93 -0.304578 236.969 -0.304578 235.757 0.905922L231.413 5.25742L236.936 10.7729C238.225 10.3439 239.695 10.6319 240.71 11.6564C241.742 12.6884 242.03 14.1719 241.594 15.4529L246.907 20.7734C248.195 20.3279 249.68 20.6174 250.703 21.6479C252.149 23.0849 252.149 25.4129 250.703 26.8514C249.266 28.2884 246.946 28.2884 245.507 26.8514C244.429 25.7729 244.156 24.1799 244.694 22.8599L239.717 17.9069V30.9614C240.068 31.1339 240.404 31.3679 240.694 31.6574C242.123 33.1034 242.123 35.4224 240.694 36.8609C239.257 38.2979 236.92 38.2979 235.475 36.8609C234.038 35.4239 234.038 33.1034 235.475 31.6574C235.843 31.2974 236.249 31.0319 236.686 30.8534V17.6744C236.257 17.4869 235.841 17.2289 235.483 16.8704C234.397 15.7844 234.131 14.1914 234.694 12.8549L229.271 7.40242L214.897 21.7694C213.701 22.9724 213.701 24.9329 214.897 26.1449L235.858 47.0984C237.068 48.3089 239.021 48.3089 240.233 47.0984L261.092 26.2394C262.303 25.0364 262.303 23.0759 261.092 21.8639L261.094 21.8594Z" fill="white"/>
</g>
<path d="M230.6 68.672H239V69.68C239 71.872 238.248 73.696 236.744 75.152C235.24 76.592 233.248 77.312 230.768 77.312C228.208 77.312 226.088 76.472 224.408 74.792C222.744 73.08 221.912 71.016 221.912 68.6C221.912 66.184 222.744 64.128 224.408 62.432C226.088 60.736 228.192 59.888 230.72 59.888C232.256 59.888 233.68 60.264 234.992 61.016C236.32 61.768 237.32 62.744 237.992 63.944L236.072 65.072C235.592 64.16 234.864 63.432 233.888 62.888C232.912 62.328 231.848 62.048 230.696 62.048C228.76 62.048 227.184 62.68 225.968 63.944C224.736 65.208 224.12 66.76 224.12 68.6C224.12 70.44 224.736 71.992 225.968 73.256C227.216 74.504 228.824 75.128 230.792 75.128C232.44 75.128 233.784 74.728 234.824 73.928C235.88 73.112 236.528 72.032 236.768 70.688H230.6V68.672ZM242.554 62.816C242.154 62.816 241.818 62.68 241.546 62.408C241.274 62.136 241.138 61.808 241.138 61.424C241.138 61.04 241.274 60.712 241.546 60.44C241.818 60.152 242.154 60.008 242.554 60.008C242.938 60.008 243.266 60.152 243.538 60.44C243.81 60.712 243.946 61.04 243.946 61.424C243.946 61.808 243.81 62.136 243.538 62.408C243.266 62.68 242.938 62.816 242.554 62.816ZM243.586 77H241.498V65H243.586V77ZM253.3 65V67.016H250.108V73.52C250.108 74.112 250.22 74.536 250.444 74.792C250.684 75.032 251.044 75.16 251.523 75.176C252.003 75.176 252.596 75.16 253.3 75.128V77C251.46 77.24 250.116 77.088 249.268 76.544C248.436 76 248.02 74.992 248.02 73.52V67.016H245.644V65H248.02V62.264L250.108 61.64V65H253.3Z" fill="white"/>
<defs>
<clipPath id="clip0_642_2343">
<rect width="48" height="48" fill="white" transform="translate(19)"/>
</clipPath>
<clipPath id="clip1_642_2343">
<rect width="48" height="48" fill="white" transform="translate(214)"/>
</clipPath>
</defs>
</svg>
