<svg width="56" height="56" viewBox="0 0 56 56" fill="none" xmlns="http://www.w3.org/2000/svg">
<path d="M8.45697 50.6339L7.36376 49.2674H7.36376L8.45697 50.6339ZM16.3326 44.3334L15.2394 42.9668L16.3326 44.3334ZM6.41605 18.6667C6.41605 13.1898 10.8559 8.75 16.3327 8.75V5.25C8.9229 5.25 2.91605 11.2568 2.91605 18.6667H6.41605ZM6.41605 31.5V18.6667H2.91605V31.5H6.41605ZM6.41602 48.8119V31.5H2.91602V48.8119H6.41602ZM7.36376 49.2674C6.98181 49.5729 6.41602 49.301 6.41602 48.8119H2.91602C2.91602 52.2358 6.87658 54.1393 9.55019 52.0004L7.36376 49.2674ZM15.2394 42.9668L7.36376 49.2674L9.55019 52.0004L17.4259 45.6999L15.2394 42.9668ZM39.6661 42.5833H16.3327V46.0833H39.6661V42.5833ZM49.5827 32.6667C49.5827 38.1435 45.1429 42.5833 39.6661 42.5833V46.0833C47.0759 46.0833 53.0827 40.0765 53.0827 32.6667H49.5827ZM49.5827 18.6667V32.6667H53.0827V18.6667H49.5827ZM39.666 8.75C45.1429 8.75 49.5827 13.1898 49.5827 18.6667H53.0827C53.0827 11.2568 47.0759 5.25 39.666 5.25V8.75ZM16.3327 8.75H39.666V5.25H16.3327V8.75ZM17.4259 45.6999C17.1156 45.9481 16.7301 46.0833 16.3327 46.0833V42.5833C15.9353 42.5833 15.5498 42.7186 15.2394 42.9668L17.4259 45.6999ZM5.95389 30.3151C4.97151 29.2474 2.91602 29.7633 2.91602 31.5H6.41602C6.41602 33.2368 4.36054 33.7526 3.37818 32.6849L5.95389 30.3151ZM2.91605 31.5C2.91605 29.9056 4.87434 29.1418 5.95389 30.3151L3.37818 32.6849C4.45774 33.8583 6.41605 33.0945 6.41605 31.5H2.91605Z" fill="#9300FC"/>
<circle cx="16.4499" cy="25.7829" r="2.91667" fill="#9300FC"/>
<circle cx="28.1169" cy="25.7829" r="2.91667" fill="#9300FC"/>
<circle cx="39.7829" cy="25.7829" r="2.91667" fill="#9300FC"/>
</svg>
