<svg width="522" height="85" viewBox="0 0 522 85" fill="none" xmlns="http://www.w3.org/2000/svg">
<path d="M33.0006 28.2746C35.3616 28.2746 37.2756 26.3606 37.2756 23.9996C37.2756 21.6386 35.3616 19.7246 33.0006 19.7246C30.6396 19.7246 28.7256 21.6386 28.7256 23.9996C28.7256 26.3606 30.6396 28.2746 33.0006 28.2746Z" fill="white"/>
<path d="M49.2379 16.9496C48.4129 16.6496 47.5504 16.3496 46.6504 16.0871C46.8754 15.1871 47.0629 14.2871 47.2129 13.4246C48.0004 8.47461 47.1379 4.98711 44.7379 3.63711C44.0254 3.22461 43.2379 3.03711 42.3379 3.03711C39.7129 3.03711 36.3754 4.98711 33.0004 8.24961C29.6254 4.98711 26.2879 3.03711 23.6629 3.03711C22.7629 3.03711 21.9754 3.22461 21.2629 3.63711C18.8629 5.02461 18.0004 8.51211 18.7879 13.4246C18.9379 14.2871 19.1254 15.1871 19.3504 16.0871C18.4504 16.3496 17.5879 16.6121 16.7629 16.9496C12.0754 18.7496 9.52539 21.2246 9.52539 23.9996C9.52539 26.7746 12.1129 29.2496 16.7629 31.0496C17.5879 31.3496 18.4504 31.6496 19.3504 31.9121C19.1254 32.8121 18.9379 33.7121 18.7879 34.5746C18.0004 39.5246 18.8629 43.0121 21.2629 44.3621C21.9754 44.7746 22.7629 44.9621 23.6629 44.9621C26.3254 44.9621 29.6629 43.0121 33.0004 39.7496C36.3754 43.0121 39.7129 44.9621 42.3379 44.9621C43.2379 44.9621 44.0254 44.7746 44.7379 44.3621C47.1379 42.9746 48.0004 39.4871 47.2129 34.5746C47.0629 33.7121 46.8754 32.8121 46.6504 31.9121C47.5504 31.6496 48.4129 31.3871 49.2379 31.0496C53.9254 29.2496 56.4754 26.7746 56.4754 23.9996C56.4754 21.2246 53.9254 18.7496 49.2379 16.9496ZM43.6879 5.51211C45.2254 6.41211 45.7504 9.18711 45.1129 13.1246C45.0004 13.9121 44.8129 14.7371 44.5879 15.5996C42.6379 15.1496 40.5754 14.8496 38.4004 14.6621C37.1254 12.8621 35.8129 11.2496 34.5004 9.78711C37.2754 7.04961 40.0879 5.17461 42.3754 5.17461C42.8629 5.17461 43.3129 5.28711 43.6879 5.51211ZM39.4879 27.7496C38.8129 28.9496 38.0254 30.1496 37.2004 31.3496C35.8129 31.4621 34.4254 31.4996 33.0004 31.4996C31.5379 31.4996 30.1504 31.4621 28.8004 31.3496C27.9754 30.1496 27.2254 28.9496 26.5504 27.7496C25.8379 26.5121 25.1629 25.2371 24.5629 23.9996C25.1629 22.7621 25.8379 21.4871 26.5504 20.2496C27.2254 19.0496 28.0129 17.8496 28.8379 16.6496C30.2254 16.5371 31.6129 16.4996 33.0379 16.4996C34.5004 16.4996 35.8879 16.5371 37.2379 16.6496C38.0629 17.8496 38.8129 19.0496 39.4879 20.2496C40.2004 21.4871 40.8754 22.7621 41.4754 23.9996C40.8379 25.2371 40.2004 26.4746 39.4879 27.7496ZM42.6004 26.5121C43.1629 27.8246 43.6129 29.0996 44.0254 30.3746C42.7504 30.6746 41.4004 30.8996 39.9754 31.0871C40.4254 30.3746 40.9129 29.6246 41.3254 28.8371C41.7754 28.0496 42.1879 27.2621 42.6004 26.5121ZM33.0004 36.6746C32.1004 35.6996 31.2379 34.6496 30.4129 33.5621C31.2754 33.5996 32.1379 33.6371 33.0004 33.6371C33.8629 33.6371 34.7254 33.5996 35.5879 33.5621C34.7629 34.6496 33.9004 35.6996 33.0004 36.6746ZM26.0254 31.0496C24.6004 30.8621 23.2504 30.6371 21.9754 30.3371C22.3879 29.0996 22.8379 27.7871 23.4004 26.4746C23.8129 27.2246 24.2254 28.0121 24.6754 28.7621C25.1254 29.5871 25.5754 30.2996 26.0254 31.0496ZM23.4004 21.4871C22.8379 20.1746 22.3879 18.8996 21.9754 17.6246C23.2504 17.3246 24.6004 17.0996 26.0254 16.9121C25.5754 17.6246 25.0879 18.3746 24.6754 19.1621C24.2254 19.9496 23.8129 20.7371 23.4004 21.4871ZM33.0004 11.3246C33.9004 12.2996 34.7629 13.3496 35.5879 14.4371C34.7254 14.3996 33.8629 14.3621 33.0004 14.3621C32.1379 14.3621 31.2754 14.3996 30.4129 14.4371C31.2379 13.3496 32.1004 12.2996 33.0004 11.3246ZM41.3254 19.1996L39.9754 16.9496C41.4004 17.1371 42.7504 17.3621 44.0254 17.6621C43.6129 18.8996 43.1629 20.2121 42.6004 21.5246C42.1879 20.7371 41.7754 19.9496 41.3254 19.1996ZM20.8879 13.1246C20.2504 9.18711 20.7754 6.41211 22.3129 5.51211C22.6879 5.28711 23.1379 5.17461 23.6254 5.17461C25.8754 5.17461 28.6879 7.01211 31.5004 9.78711C30.1879 11.2121 28.8754 12.8621 27.6004 14.6621C25.4254 14.8496 23.3629 15.1871 21.4129 15.5996C21.1879 14.7371 21.0379 13.9121 20.8879 13.1246ZM11.6254 23.9996C11.6254 22.2371 13.7629 20.3621 17.5129 18.9746C18.2629 18.6746 19.0879 18.4121 19.9129 18.1871C20.5129 20.0621 21.2629 22.0496 22.1629 24.0371C21.2629 26.0246 20.4754 27.9746 19.9129 29.8496C14.7379 28.3496 11.6254 26.0996 11.6254 23.9996ZM22.3129 42.4871C20.7754 41.5871 20.2504 38.8121 20.8879 34.8746C21.0004 34.0871 21.1879 33.2621 21.4129 32.3996C23.3629 32.8496 25.4254 33.1496 27.6004 33.3371C28.8754 35.1371 30.1879 36.7496 31.5004 38.2121C28.7254 40.9496 25.9129 42.8246 23.6254 42.8246C23.1379 42.8246 22.6879 42.7121 22.3129 42.4871ZM45.1129 34.8746C45.7504 38.8121 45.2254 41.5871 43.6879 42.4871C43.3129 42.7121 42.8629 42.8246 42.3754 42.8246C40.1254 42.8246 37.3129 40.9871 34.5004 38.2121C35.8129 36.7871 37.1254 35.1371 38.4004 33.3371C40.5754 33.1496 42.6379 32.8121 44.5879 32.3996C44.8129 33.2621 44.9629 34.0871 45.1129 34.8746ZM48.4879 29.0246C47.7379 29.3246 46.9129 29.5871 46.0879 29.8121C45.4879 27.9371 44.7379 25.9496 43.8379 23.9621C44.7379 21.9746 45.5254 20.0246 46.0879 18.1496C51.2629 19.6496 54.3754 21.8996 54.3754 23.9996C54.3754 25.7621 52.2004 27.6371 48.4879 29.0246Z" fill="white"/>
<path d="M14.232 77H11.76L7.992 70.568H4.032V77H1.8V60.2H8.52C9.96 60.2 11.192 60.712 12.216 61.736C13.24 62.744 13.752 63.968 13.752 65.408C13.752 66.496 13.424 67.488 12.768 68.384C12.096 69.296 11.264 69.928 10.272 70.28L14.232 77ZM8.52 62.288H4.032V68.552H8.52C9.352 68.552 10.056 68.248 10.632 67.64C11.224 67.032 11.52 66.288 11.52 65.408C11.52 64.528 11.224 63.792 10.632 63.2C10.056 62.592 9.352 62.288 8.52 62.288ZM27.1665 71.96H17.1105C17.3185 73.016 17.8065 73.848 18.5745 74.456C19.3425 75.048 20.3025 75.344 21.4545 75.344C23.0385 75.344 24.1905 74.76 24.9105 73.592L26.6865 74.6C25.5025 76.408 23.7425 77.312 21.4065 77.312C19.5185 77.312 17.9665 76.72 16.7505 75.536C15.5665 74.32 14.9745 72.808 14.9745 71C14.9745 69.176 15.5585 67.672 16.7265 66.488C17.8945 65.288 19.4065 64.688 21.2625 64.688C23.0225 64.688 24.4545 65.312 25.5585 66.56C26.6785 67.776 27.2385 69.264 27.2385 71.024C27.2385 71.328 27.2145 71.64 27.1665 71.96ZM21.2625 66.656C20.1585 66.656 19.2305 66.968 18.4785 67.592C17.7425 68.216 17.2865 69.064 17.1105 70.136H25.1265C24.9505 69.032 24.5105 68.176 23.8065 67.568C23.1025 66.96 22.2545 66.656 21.2625 66.656ZM39.5513 67.064V65H41.6393V77H39.5513V74.936C38.5273 76.52 37.0153 77.312 35.0153 77.312C33.3193 77.312 31.8873 76.704 30.7193 75.488C29.5353 74.256 28.9433 72.76 28.9433 71C28.9433 69.256 29.5353 67.768 30.7193 66.536C31.9033 65.304 33.3353 64.688 35.0153 64.688C37.0153 64.688 38.5273 65.48 39.5513 67.064ZM35.2793 75.296C36.4953 75.296 37.5113 74.888 38.3273 74.072C39.1433 73.224 39.5513 72.2 39.5513 71C39.5513 69.784 39.1433 68.768 38.3273 67.952C37.5113 67.12 36.4953 66.704 35.2793 66.704C34.0793 66.704 33.0713 67.12 32.2553 67.952C31.4393 68.768 31.0312 69.784 31.0312 71C31.0312 72.2 31.4393 73.224 32.2553 74.072C33.0713 74.888 34.0793 75.296 35.2793 75.296ZM50.4428 77.312C48.6348 77.312 47.1308 76.712 45.9308 75.512C44.7308 74.296 44.1308 72.792 44.1308 71C44.1308 69.208 44.7308 67.712 45.9308 66.512C47.1308 65.296 48.6348 64.688 50.4428 64.688C51.6268 64.688 52.6908 64.976 53.6348 65.552C54.5788 66.112 55.2828 66.872 55.7468 67.832L53.9948 68.84C53.6908 68.2 53.2188 67.688 52.5788 67.304C51.9548 66.92 51.2428 66.728 50.4428 66.728C49.2428 66.728 48.2348 67.136 47.4188 67.952C46.6188 68.784 46.2188 69.8 46.2188 71C46.2188 72.184 46.6188 73.192 47.4188 74.024C48.2348 74.84 49.2428 75.248 50.4428 75.248C51.2428 75.248 51.9628 75.064 52.6028 74.696C53.2428 74.312 53.7308 73.8 54.0668 73.16L55.8428 74.192C55.3148 75.152 54.5708 75.912 53.6108 76.472C52.6508 77.032 51.5948 77.312 50.4428 77.312ZM64.4323 65V67.016H61.2403V73.52C61.2403 74.112 61.3523 74.536 61.5763 74.792C61.8163 75.032 62.1763 75.16 62.6563 75.176C63.1363 75.176 63.7283 75.16 64.4323 75.128V77C62.5923 77.24 61.2483 77.088 60.4003 76.544C59.5683 76 59.1523 74.992 59.1523 73.52V67.016H56.7763V65H59.1523V62.264L61.2403 61.64V65H64.4323Z" fill="white"/>
<path d="M146.665 26.3582C145.346 26.3599 144.045 26.6615 142.859 27.2402C142.488 26.6244 142.202 25.9614 142.007 25.2692C141.896 24.7266 141.87 24.1698 141.931 23.6192C142.059 23.0133 142.225 22.4161 142.429 21.8312C142.421 21.7547 142.337 21.3932 141.493 21.3812C140.648 21.3692 139.921 21.5417 139.843 21.7652C139.696 22.1734 139.578 22.5914 139.49 23.0162C138.791 24.7405 137.931 26.3948 136.921 27.9572C136.355 27.0293 136.122 25.9362 136.261 24.8582C136.389 24.2523 136.555 23.6551 136.759 23.0702C136.751 22.9937 136.667 22.6322 135.823 22.6202C134.978 22.6082 134.251 22.7807 134.173 23.0042C134.095 23.2277 133.996 23.7542 133.82 24.2552C133.645 24.7562 131.596 29.3342 131.059 30.5147C130.783 31.1147 130.544 31.6037 130.376 31.9337C130.368 31.9551 130.358 31.9757 130.346 31.9952C130.196 32.2787 130.117 32.4332 130.117 32.4332V32.4407C130.001 32.6477 129.878 32.8397 129.817 32.8397C129.71 32.4111 129.715 31.9622 129.832 31.5362C130.132 29.9477 130.867 27.4787 130.859 27.3932C130.859 27.3467 130.997 26.9177 130.384 26.6957C130.242 26.628 130.082 26.606 129.927 26.6329C129.771 26.6598 129.628 26.7341 129.517 26.8457C129.463 26.8457 129.425 26.9762 129.425 26.9762C129.425 26.9762 130.093 24.1997 128.152 24.1997C127.396 24.3517 126.678 24.6534 126.041 25.0869C125.403 25.5205 124.859 26.0771 124.439 26.7242C123.917 27.0077 122.806 27.6137 121.616 28.2662C121.166 28.5197 120.695 28.7732 120.259 29.0162C120.229 28.9862 120.197 28.9472 120.167 28.9172C117.805 26.4002 113.462 24.6242 113.65 21.2567C113.719 20.0297 114.14 16.8077 121.988 12.8942C128.447 9.71119 133.588 10.5932 134.477 12.5492C135.751 15.3422 131.723 20.5277 125.05 21.2792C124.312 21.429 123.549 21.4109 122.819 21.2263C122.088 21.0417 121.409 20.6953 120.83 20.2127C120.478 19.8287 120.424 19.8062 120.293 19.8827C120.079 19.9982 120.217 20.3432 120.293 20.5427C120.548 21.0034 120.892 21.4084 121.306 21.7338C121.72 22.0592 122.195 22.2984 122.702 22.4372C125.328 23.0045 128.065 22.7333 130.528 21.6617C134.578 20.0972 137.728 15.7472 136.804 12.1037C135.875 8.40619 129.739 7.18669 123.931 9.25369C120.293 10.4778 116.932 12.4059 114.038 14.9282C110.839 17.9207 110.333 20.5202 110.54 21.6107C111.29 25.4777 116.617 27.9932 118.748 29.8607C118.64 29.9222 118.541 29.9762 118.457 30.0212C117.391 30.5507 113.326 32.6762 112.307 34.9232C111.157 37.4732 112.492 39.2957 113.374 39.5417C114.703 39.8598 116.098 39.755 117.365 39.2419C118.631 38.7289 119.706 37.8331 120.439 36.6797C121.063 35.723 121.447 34.6297 121.557 33.4928C121.668 32.3559 121.502 31.2091 121.073 30.1502C121.066 30.1331 121.056 30.1173 121.043 30.1037L121.879 29.6132C122.423 29.2907 122.96 28.9922 123.421 28.7462C123.109 29.6469 122.925 30.5872 122.876 31.5392C122.77 32.9983 123.217 34.444 124.127 35.5892C124.266 35.7084 124.427 35.799 124.601 35.8557C124.774 35.9123 124.958 35.9339 125.14 35.9192C126.04 35.9192 126.452 35.1692 126.904 34.2782C127.456 33.1892 127.954 31.9232 127.954 31.9232C127.954 31.9232 127.333 35.3447 129.02 35.3447C129.634 35.3447 130.255 34.5467 130.532 34.1447V34.1522C130.532 34.1522 130.547 34.1297 130.579 34.0757L130.678 33.9152V33.9002C130.924 33.4712 131.476 32.4962 132.296 30.8777C133.355 28.7912 134.375 26.1827 134.375 26.1827C134.474 26.7559 134.61 27.3222 134.782 27.8777C135.029 28.5511 135.321 29.2071 135.656 29.8412C135.41 30.1862 135.257 30.3782 135.257 30.3782L135.265 30.3857C135.065 30.6467 134.851 30.9302 134.612 31.2062C133.903 31.9863 133.244 32.8115 132.641 33.6767C132.552 33.822 132.521 33.996 132.555 34.1633C132.59 34.3305 132.686 34.4783 132.826 34.5767C133.142 34.741 133.502 34.8004 133.853 34.7462C134.384 34.7163 134.905 34.5971 135.395 34.3937C135.869 34.2269 136.317 33.9919 136.723 33.6962C137.142 33.406 137.479 33.013 137.702 32.5548C137.925 32.0967 138.026 31.5888 137.996 31.0802C137.949 30.4394 137.786 29.8127 137.513 29.2307C137.59 29.1227 137.663 29.0162 137.735 28.9082C138.588 27.6353 139.357 26.3079 140.036 24.9347C140.135 25.5079 140.271 26.0742 140.443 26.6297C140.647 27.2116 140.897 27.776 141.193 28.3172C140.212 29.072 139.439 30.0642 138.947 31.2002C138.464 32.5967 138.839 33.2252 139.547 33.3707C139.935 33.3974 140.322 33.318 140.668 33.1412C141.176 32.9741 141.655 32.7281 142.087 32.4122C142.542 32.1435 142.924 31.7657 143.197 31.313C143.47 30.8603 143.626 30.3468 143.651 29.8187C143.617 29.2915 143.498 28.7734 143.299 28.2842C144.594 27.7784 145.997 27.6171 147.373 27.8162C151.024 28.2452 151.745 30.5237 151.607 31.4837C151.543 31.824 151.406 32.1465 151.206 32.4296C151.006 32.7126 150.748 32.9496 150.449 33.1247C150.196 33.2852 150.112 33.3392 150.134 33.4547C150.164 33.6242 150.284 33.6152 150.502 33.5852C151.052 33.4142 151.538 33.0804 151.894 32.6278C152.251 32.1752 152.462 31.6252 152.5 31.0502C152.615 28.8002 150.467 26.3327 146.669 26.3552L146.665 26.3582ZM118.495 35.8502C117.283 37.1702 115.595 37.6682 114.866 37.2467C114.083 36.7967 114.391 34.8467 115.879 33.4487C116.762 32.6541 117.716 31.9426 118.729 31.3232C118.906 31.2152 119.167 31.0622 119.479 30.8732L119.563 30.8267L119.747 30.7112C120.013 31.6019 120.037 32.5473 119.817 33.4503C119.597 34.3534 119.141 35.1817 118.495 35.8502ZM127.316 29.8502C126.895 30.8777 126.013 33.5102 125.476 33.3632C125.015 33.2402 124.726 31.2452 125.384 29.2742C125.717 28.3254 126.201 27.4368 126.818 26.6432C127.478 25.9067 128.207 25.6607 128.383 25.9607C128.223 27.303 127.863 28.6139 127.316 29.8502ZM134.596 33.3332C134.419 33.4247 134.251 33.4832 134.174 33.4412C134.12 33.4112 134.251 33.2912 134.251 33.2912C134.251 33.2912 135.164 32.3087 135.524 31.8647C135.731 31.6037 135.974 31.2977 136.238 30.9512V31.0502C136.238 32.2232 135.103 33.0137 134.597 33.3362L134.596 33.3332ZM140.212 32.0522C140.081 31.9607 140.104 31.6532 140.542 30.6947C140.846 30.0791 141.272 29.5312 141.793 29.0837C141.873 29.3107 141.914 29.5495 141.916 29.7902C141.922 30.3025 141.758 30.8024 141.45 31.2118C141.142 31.6213 140.707 31.9173 140.213 32.0537L140.212 32.0522Z" fill="white"/>
<path d="M113.224 77.312C111.656 77.312 110.312 76.952 109.192 76.232C108.088 75.496 107.312 74.48 106.864 73.184L108.784 72.08C109.424 74.112 110.92 75.128 113.272 75.128C114.408 75.128 115.28 74.896 115.888 74.432C116.512 73.968 116.824 73.336 116.824 72.536C116.824 71.752 116.52 71.152 115.912 70.736C115.368 70.368 114.352 69.944 112.864 69.464L111.256 68.936C110.904 68.792 110.44 68.584 109.864 68.312C109.304 68.024 108.896 67.736 108.64 67.448C107.936 66.68 107.584 65.744 107.584 64.64C107.584 63.168 108.096 62.016 109.12 61.184C110.144 60.32 111.392 59.888 112.864 59.888C114.176 59.888 115.328 60.216 116.32 60.872C117.312 61.528 118.056 62.424 118.552 63.56L116.68 64.64C115.96 62.912 114.688 62.048 112.864 62.048C111.952 62.048 111.216 62.272 110.656 62.72C110.096 63.168 109.816 63.776 109.816 64.544C109.816 65.28 110.08 65.84 110.608 66.224C111.152 66.624 112.064 67.024 113.344 67.424L114.328 67.736C114.872 67.944 115.168 68.056 115.216 68.072C115.728 68.264 116.288 68.528 116.896 68.864C117.328 69.104 117.76 69.472 118.192 69.968C118.752 70.528 119.032 71.368 119.032 72.488C119.032 73.96 118.496 75.136 117.424 76.016C116.336 76.88 114.936 77.312 113.224 77.312ZM131.676 67.064V65H133.764V77H131.676V74.936C130.652 76.52 129.14 77.312 127.14 77.312C125.444 77.312 124.012 76.704 122.844 75.488C121.66 74.256 121.068 72.76 121.068 71C121.068 69.256 121.66 67.768 122.844 66.536C124.028 65.304 125.46 64.688 127.14 64.688C129.14 64.688 130.652 65.48 131.676 67.064ZM127.404 75.296C128.62 75.296 129.636 74.888 130.452 74.072C131.268 73.224 131.676 72.2 131.676 71C131.676 69.784 131.268 68.768 130.452 67.952C129.636 67.12 128.62 66.704 127.404 66.704C126.204 66.704 125.196 67.12 124.38 67.952C123.564 68.768 123.156 69.784 123.156 71C123.156 72.2 123.564 73.224 124.38 74.072C125.196 74.888 126.204 75.296 127.404 75.296ZM138.704 68.24C138.704 69.008 139.496 69.608 141.08 70.04C141.672 70.168 142.168 70.304 142.568 70.448C142.984 70.576 143.432 70.776 143.912 71.048C144.408 71.32 144.784 71.68 145.04 72.128C145.296 72.576 145.424 73.104 145.424 73.712C145.424 74.8 145 75.672 144.152 76.328C143.304 76.984 142.232 77.312 140.936 77.312C139.784 77.312 138.784 77.064 137.936 76.568C137.104 76.056 136.512 75.368 136.16 74.504L137.96 73.472C138.152 74.048 138.512 74.504 139.04 74.84C139.568 75.176 140.2 75.344 140.936 75.344C141.656 75.344 142.232 75.208 142.664 74.936C143.096 74.664 143.312 74.256 143.312 73.712C143.312 72.896 142.52 72.304 140.936 71.936C140.408 71.792 140.008 71.68 139.736 71.6C139.464 71.52 139.088 71.376 138.608 71.168C138.144 70.96 137.792 70.744 137.552 70.52C137.312 70.28 137.088 69.968 136.88 69.584C136.688 69.184 136.592 68.744 136.592 68.264C136.592 67.224 136.992 66.368 137.792 65.696C138.608 65.024 139.624 64.688 140.84 64.688C141.816 64.688 142.68 64.912 143.432 65.36C144.2 65.792 144.776 66.4 145.16 67.184L143.408 68.168C142.976 67.144 142.12 66.632 140.84 66.632C140.232 66.632 139.72 66.776 139.304 67.064C138.904 67.352 138.704 67.744 138.704 68.24ZM148.947 68.24C148.947 69.008 149.739 69.608 151.323 70.04C151.915 70.168 152.411 70.304 152.811 70.448C153.227 70.576 153.675 70.776 154.155 71.048C154.651 71.32 155.027 71.68 155.283 72.128C155.539 72.576 155.667 73.104 155.667 73.712C155.667 74.8 155.243 75.672 154.395 76.328C153.547 76.984 152.475 77.312 151.179 77.312C150.027 77.312 149.027 77.064 148.179 76.568C147.347 76.056 146.755 75.368 146.403 74.504L148.203 73.472C148.395 74.048 148.755 74.504 149.283 74.84C149.811 75.176 150.443 75.344 151.179 75.344C151.899 75.344 152.475 75.208 152.907 74.936C153.339 74.664 153.555 74.256 153.555 73.712C153.555 72.896 152.763 72.304 151.179 71.936C150.651 71.792 150.251 71.68 149.979 71.6C149.707 71.52 149.331 71.376 148.851 71.168C148.387 70.96 148.035 70.744 147.795 70.52C147.555 70.28 147.331 69.968 147.123 69.584C146.931 69.184 146.835 68.744 146.835 68.264C146.835 67.224 147.235 66.368 148.035 65.696C148.851 65.024 149.867 64.688 151.083 64.688C152.059 64.688 152.923 64.912 153.675 65.36C154.443 65.792 155.019 66.4 155.403 67.184L153.651 68.168C153.219 67.144 152.363 66.632 151.083 66.632C150.475 66.632 149.963 66.776 149.547 67.064C149.147 67.352 148.947 67.744 148.947 68.24Z" fill="white"/>
<path d="M212.353 40.8015L208.982 3H246.017L242.642 40.7955L227.477 45L212.353 40.8015Z" fill="white"/>
<path d="M227.5 41.7873L239.755 38.3898L242.638 6.0918H227.5V41.7873Z" fill="#E9E9E9"/>
<path d="M227.5 20.1106H221.365L220.942 15.3631H227.5V10.7266H227.484H215.875L215.986 11.9716L217.125 24.7471H227.5V20.1106Z" fill="#242424"/>
<path d="M227.5 32.1514L227.479 32.1574L222.316 30.7639L221.986 27.0664H219.476H217.331L217.981 34.3444L227.479 36.9814L227.5 36.9754V32.1514Z" fill="#242424"/>
<path d="M227.483 20.1104V24.7469H233.192L232.655 30.7604L227.483 32.1554V36.9794L236.989 34.3439L237.058 33.5609L238.147 21.3554L238.261 20.1104H237.011H227.483Z" fill="#161616"/>
<path d="M227.483 10.7266V13.6066V15.3526V15.3631H238.667H238.682L238.775 14.3221L238.987 11.9716L239.098 10.7266H227.483Z" fill="#161616"/>
<path d="M209.192 67.328V60.2H211.4V77H209.192V69.44H201.032V77H198.8V60.2H201.032V67.328H209.192ZM213.627 60.2H225.747V62.312H220.779V77H218.571V62.312H213.627V60.2ZM241.156 60.2H243.676V77H241.468V63.872L235.972 73.016H235.684L230.188 63.896V77H227.956V60.2H230.476L235.828 69.08L241.156 60.2ZM249.501 60.2V74.888H256.749V77H247.269V60.2H249.501Z" fill="white"/>
<path d="M306.853 40.8015L303.484 3H340.516L337.143 40.7955L321.978 45L306.853 40.8015Z" fill="white"/>
<path d="M322 41.7853L334.255 38.3878L337.138 6.08984H322V41.7853Z" fill="#E9E9E9"/>
<path d="M322 19.7863H328.135L328.558 15.0388H322V10.4023H322.016H333.625L333.514 11.6458L332.375 24.4228H322V19.7863Z" fill="#161616"/>
<path d="M322.028 31.8287L322.007 31.8347L316.844 30.4397L316.514 26.7422H314.004H311.859L312.509 34.0217L322.005 36.6587L322.028 36.6527V31.8287Z" fill="#242424"/>
<path d="M327.74 24.2266L327.182 30.4351L322.012 31.8301V36.6541L331.516 34.0201L331.586 33.2371L332.392 24.2266H327.74Z" fill="#161616"/>
<path d="M322.017 10.4023V13.2823V15.0268V15.0388H310.833H310.818L310.725 13.9963L310.513 11.6458L310.402 10.4023H322.017Z" fill="#242424"/>
<path d="M322.001 19.7852V22.6652V24.4097V24.4217H316.917H316.902L316.809 23.3792L316.599 21.0287L316.488 19.7852H322.001Z" fill="#242424"/>
<path d="M309.196 77.312C306.636 77.312 304.532 76.472 302.884 74.792C301.236 73.128 300.412 71.064 300.412 68.6C300.412 66.136 301.236 64.072 302.884 62.408C304.532 60.728 306.636 59.888 309.196 59.888C310.716 59.888 312.124 60.256 313.42 60.992C314.716 61.728 315.724 62.72 316.444 63.968L314.5 65.096C314.02 64.168 313.3 63.432 312.34 62.888C311.396 62.328 310.348 62.048 309.196 62.048C307.244 62.048 305.66 62.672 304.444 63.92C303.228 65.152 302.62 66.712 302.62 68.6C302.62 70.472 303.228 72.024 304.444 73.256C305.66 74.504 307.244 75.128 309.196 75.128C310.348 75.128 311.396 74.856 312.34 74.312C313.3 73.752 314.02 73.016 314.5 72.104L316.444 73.208C315.74 74.456 314.74 75.456 313.444 76.208C312.164 76.944 310.748 77.312 309.196 77.312ZM324.396 77.312C322.828 77.312 321.484 76.952 320.364 76.232C319.26 75.496 318.484 74.48 318.036 73.184L319.956 72.08C320.596 74.112 322.092 75.128 324.444 75.128C325.58 75.128 326.452 74.896 327.06 74.432C327.684 73.968 327.996 73.336 327.996 72.536C327.996 71.752 327.692 71.152 327.084 70.736C326.54 70.368 325.524 69.944 324.036 69.464L322.428 68.936C322.076 68.792 321.612 68.584 321.036 68.312C320.476 68.024 320.068 67.736 319.812 67.448C319.108 66.68 318.756 65.744 318.756 64.64C318.756 63.168 319.268 62.016 320.292 61.184C321.316 60.32 322.564 59.888 324.036 59.888C325.348 59.888 326.5 60.216 327.492 60.872C328.484 61.528 329.228 62.424 329.724 63.56L327.852 64.64C327.132 62.912 325.86 62.048 324.036 62.048C323.124 62.048 322.388 62.272 321.828 62.72C321.268 63.168 320.988 63.776 320.988 64.544C320.988 65.28 321.252 65.84 321.78 66.224C322.324 66.624 323.236 67.024 324.516 67.424L325.5 67.736C326.044 67.944 326.34 68.056 326.388 68.072C326.9 68.264 327.46 68.528 328.068 68.864C328.5 69.104 328.932 69.472 329.364 69.968C329.924 70.528 330.204 71.368 330.204 72.488C330.204 73.96 329.668 75.136 328.596 76.016C327.508 76.88 326.108 77.312 324.396 77.312ZM337.685 77.312C336.117 77.312 334.773 76.952 333.653 76.232C332.549 75.496 331.773 74.48 331.325 73.184L333.245 72.08C333.885 74.112 335.381 75.128 337.733 75.128C338.869 75.128 339.741 74.896 340.349 74.432C340.973 73.968 341.285 73.336 341.285 72.536C341.285 71.752 340.981 71.152 340.373 70.736C339.829 70.368 338.813 69.944 337.325 69.464L335.717 68.936C335.365 68.792 334.901 68.584 334.325 68.312C333.765 68.024 333.357 67.736 333.101 67.448C332.397 66.68 332.045 65.744 332.045 64.64C332.045 63.168 332.557 62.016 333.581 61.184C334.605 60.32 335.853 59.888 337.325 59.888C338.637 59.888 339.789 60.216 340.781 60.872C341.773 61.528 342.517 62.424 343.013 63.56L341.141 64.64C340.421 62.912 339.149 62.048 337.325 62.048C336.413 62.048 335.677 62.272 335.117 62.72C334.557 63.168 334.277 63.776 334.277 64.544C334.277 65.28 334.541 65.84 335.069 66.224C335.613 66.624 336.525 67.024 337.805 67.424L338.789 67.736C339.333 67.944 339.629 68.056 339.677 68.072C340.189 68.264 340.749 68.528 341.357 68.864C341.789 69.104 342.221 69.472 342.653 69.968C343.213 70.528 343.493 71.368 343.493 72.488C343.493 73.96 342.957 75.136 341.885 76.016C340.797 76.88 339.397 77.312 337.685 77.312Z" fill="white"/>
<path d="M434 0H386V48H434V0Z" fill="white"/>
<path d="M417.214 35.8116C417.572 36.5385 418.128 37.1495 418.818 37.5741C419.508 37.9987 420.304 38.2197 421.114 38.2116C422.749 38.2116 423.795 37.3941 423.795 36.2616C423.795 34.9116 422.721 34.4286 420.921 33.6411L419.934 33.2181C417.084 32.0046 415.194 30.4851 415.194 27.2721C415.194 24.3126 417.444 22.0581 420.973 22.0581C422.116 21.9756 423.257 22.2313 424.255 22.7934C425.254 23.3554 426.064 24.1989 426.586 25.2186L423.501 27.1911C423.3 26.6855 422.95 26.2529 422.497 25.9507C422.045 25.6486 421.511 25.4911 420.967 25.4991C420.73 25.4754 420.49 25.5013 420.263 25.5753C420.036 25.6493 419.828 25.7697 419.65 25.9289C419.472 26.0881 419.33 26.2825 419.231 26.4998C419.133 26.7172 419.081 26.9526 419.079 27.1911C419.079 28.3746 419.812 28.8546 421.506 29.5911L422.493 30.0141C425.847 31.4526 427.743 32.9181 427.743 36.2136C427.743 39.7671 424.951 41.7141 421.203 41.7141C419.742 41.8072 418.286 41.4756 417.01 40.7593C415.733 40.0431 414.692 38.9728 414.01 37.6776L417.214 35.8116ZM403.272 36.1536C403.891 37.2531 404.455 38.1831 405.811 38.1831C407.107 38.1831 407.926 37.6761 407.926 35.7036V22.2831H411.873V35.7561C411.873 39.8421 409.473 41.7021 405.979 41.7021C404.744 41.7696 403.518 41.4619 402.461 40.8193C401.404 40.1768 400.567 39.2296 400.059 38.1021L403.272 36.1536Z" fill="black"/>
<path d="M402.168 77.312C400.936 77.312 399.856 77.056 398.928 76.544C398.016 76.016 397.344 75.272 396.912 74.312L398.808 73.208C399.32 74.488 400.44 75.128 402.168 75.128C403.256 75.128 404.096 74.872 404.688 74.36C405.296 73.832 405.6 73.072 405.6 72.08V60.2H407.808V72.08C407.808 73.76 407.272 75.056 406.2 75.968C405.128 76.864 403.784 77.312 402.168 77.312ZM416.607 77.312C415.039 77.312 413.695 76.952 412.575 76.232C411.471 75.496 410.695 74.48 410.247 73.184L412.167 72.08C412.807 74.112 414.303 75.128 416.655 75.128C417.791 75.128 418.663 74.896 419.271 74.432C419.895 73.968 420.207 73.336 420.207 72.536C420.207 71.752 419.903 71.152 419.295 70.736C418.751 70.368 417.735 69.944 416.247 69.464L414.639 68.936C414.287 68.792 413.823 68.584 413.247 68.312C412.687 68.024 412.279 67.736 412.023 67.448C411.319 66.68 410.967 65.744 410.967 64.64C410.967 63.168 411.479 62.016 412.503 61.184C413.527 60.32 414.775 59.888 416.247 59.888C417.559 59.888 418.711 60.216 419.703 60.872C420.695 61.528 421.439 62.424 421.935 63.56L420.063 64.64C419.343 62.912 418.071 62.048 416.247 62.048C415.335 62.048 414.599 62.272 414.039 62.72C413.479 63.168 413.199 63.776 413.199 64.544C413.199 65.28 413.463 65.84 413.991 66.224C414.535 66.624 415.447 67.024 416.727 67.424L417.711 67.736C418.255 67.944 418.551 68.056 418.599 68.072C419.111 68.264 419.671 68.528 420.279 68.864C420.711 69.104 421.143 69.472 421.575 69.968C422.135 70.528 422.415 71.368 422.415 72.488C422.415 73.96 421.879 75.136 420.807 76.016C419.719 76.88 418.319 77.312 416.607 77.312Z" fill="white"/>
<path d="M510.6 5.8877H519L498 42.1127L477 5.8877H493.065L498 14.2877L502.83 5.8877H510.6Z" fill="#41B883"/>
<path d="M477 5.8877L498 42.1127L519 5.8877H510.6L498 27.6227L485.295 5.8877H477Z" fill="white"/>
<path d="M485.295 5.8877L498 27.7277L510.6 5.8877H502.83L498 14.2877L493.065 5.8877H485.295Z" fill="#E9E9E9"/>
<path d="M485.712 77H483.192L477.192 60.2H479.592L484.464 74.216L489.312 60.2H491.736L485.712 77ZM501.02 71.36V65H503.108V77H501.02V75.272C500.188 76.632 498.892 77.312 497.132 77.312C495.724 77.312 494.596 76.872 493.748 75.992C492.9 75.096 492.476 73.888 492.476 72.368V65H494.564V72.248C494.564 73.208 494.828 73.96 495.356 74.504C495.884 75.048 496.612 75.32 497.54 75.32C498.612 75.32 499.46 74.992 500.084 74.336C500.708 73.664 501.02 72.672 501.02 71.36ZM517.807 71.96H507.751C507.959 73.016 508.447 73.848 509.215 74.456C509.983 75.048 510.943 75.344 512.095 75.344C513.679 75.344 514.831 74.76 515.551 73.592L517.327 74.6C516.143 76.408 514.383 77.312 512.047 77.312C510.159 77.312 508.607 76.72 507.391 75.536C506.207 74.32 505.615 72.808 505.615 71C505.615 69.176 506.199 67.672 507.367 66.488C508.535 65.288 510.047 64.688 511.903 64.688C513.663 64.688 515.095 65.312 516.199 66.56C517.319 67.776 517.879 69.264 517.879 71.024C517.879 71.328 517.855 71.64 517.807 71.96ZM511.903 66.656C510.799 66.656 509.871 66.968 509.119 67.592C508.383 68.216 507.927 69.064 507.751 70.136H515.767C515.591 69.032 515.151 68.176 514.447 67.568C513.743 66.96 512.895 66.656 511.903 66.656Z" fill="white"/>
</svg>
