<svg width="56" height="56" viewBox="0 0 56 56" fill="none" xmlns="http://www.w3.org/2000/svg">
<path d="M42.7096 29.8874L41.4265 28.6974L42.7096 29.8874ZM26.2104 13.3883L27.4004 14.6714L26.2104 13.3883ZM50.5434 9.96875L52.2787 10.1957L50.5434 9.96875ZM46.1291 5.55441L46.3561 7.28964L46.1291 5.55441ZM15.1548 29.5181L16.7262 30.2884L15.1548 29.5181ZM26.5798 40.943L25.8094 39.3717L26.5798 40.943ZM19.1984 23.7002C18.5149 23.0167 17.4069 23.0167 16.7235 23.7002C16.0401 24.3836 16.0401 25.4916 16.7235 26.175L19.1984 23.7002ZM29.9228 39.3744C30.6062 40.0578 31.7143 40.0578 32.3977 39.3744C33.0811 38.6909 33.0811 37.5829 32.3977 36.8995L29.9228 39.3744ZM15.0736 43.4991C15.757 42.8157 15.757 41.7077 15.0736 41.0243C14.3902 40.3409 13.2821 40.3409 12.5987 41.0243L15.0736 43.4991ZM5.99903 47.6239C5.31562 48.3074 5.31562 49.4154 5.99903 50.0988C6.68245 50.7822 7.79049 50.7822 8.47391 50.0988L5.99903 47.6239ZM10.1238 38.5494C10.8072 37.866 10.8072 36.7579 10.1238 36.0745C9.44041 35.3911 8.33237 35.3911 7.64895 36.0745L10.1238 38.5494ZM4.34912 39.3744C3.6657 40.0578 3.6657 41.1658 4.34912 41.8492C5.03254 42.5326 6.14057 42.5326 6.82399 41.8492L4.34912 39.3744ZM20.0233 48.4489C20.7067 47.7655 20.7067 46.6574 20.0233 45.974C19.3399 45.2906 18.2319 45.2906 17.5484 45.974L20.0233 48.4489ZM14.2486 49.2739C13.5652 49.9573 13.5652 51.0653 14.2486 51.7487C14.932 52.4321 16.0401 52.4321 16.7235 51.7487L14.2486 49.2739ZM24.7256 49.1914L26.458 48.9439L26.458 48.9439L24.7256 49.1914ZM36.77 41.1068L38.5024 40.8593L36.77 41.1068ZM6.90644 31.3723L7.15393 29.6399L7.15393 29.6399L6.90644 31.3723ZM14.991 19.3279L14.7435 21.0603L14.7435 21.0603L14.991 19.3279ZM22.7519 38.8033L17.2946 33.346L14.8197 35.8208L20.277 41.2782L22.7519 38.8033ZM41.4265 28.6974C37.008 33.4615 29.8337 37.3988 25.8094 39.3717L27.3501 42.5143C31.4106 40.5237 39.1005 36.3522 43.9927 31.0775L41.4265 28.6974ZM16.7262 30.2884C18.6991 26.2641 22.6364 19.0899 27.4004 14.6714L25.0204 12.1052C19.7456 16.9974 15.5742 24.6872 13.5835 28.7477L16.7262 30.2884ZM48.8082 9.74181C48.0992 15.1629 46.2155 23.5339 41.4265 28.6974L43.9927 31.0775C49.5822 25.0508 51.5588 15.7 52.2787 10.1957L48.8082 9.74181ZM27.4004 14.6714C32.5639 9.88241 40.9349 7.99865 46.3561 7.28964L45.9022 3.81919C40.3978 4.53909 31.047 6.51567 25.0204 12.1052L27.4004 14.6714ZM52.2787 10.1957C52.7712 6.42999 49.6679 3.32668 45.9022 3.81919L46.3561 7.28964C47.8423 7.09525 49.0026 8.25556 48.8082 9.74181L52.2787 10.1957ZM17.2946 33.346C16.4472 32.4985 16.2401 31.2799 16.7262 30.2884L13.5835 28.7477C12.3977 31.1665 12.9815 33.9826 14.8197 35.8208L17.2946 33.346ZM20.277 41.2782C22.1152 43.1163 24.9314 43.7001 27.3501 42.5143L25.8094 39.3717C24.8179 39.8578 23.5993 39.6507 22.7519 38.8033L20.277 41.2782ZM16.7235 26.175L29.9228 39.3744L32.3977 36.8995L19.1984 23.7002L16.7235 26.175ZM12.5987 41.0243L5.99903 47.6239L8.47391 50.0988L15.0736 43.4991L12.5987 41.0243ZM7.64895 36.0745L4.34912 39.3744L6.82399 41.8492L10.1238 38.5494L7.64895 36.0745ZM17.5484 45.974L14.2486 49.2739L16.7235 51.7487L20.0233 48.4489L17.5484 45.974ZM30.7478 16.2755C28.2419 18.7814 28.2419 22.8442 30.7478 25.3501L33.2226 22.8752C32.0836 21.7362 32.0836 19.8894 33.2226 18.7504L30.7478 16.2755ZM30.7478 25.3501C33.2536 27.8559 37.3164 27.8559 39.8223 25.3501L37.3474 22.8752C36.2084 24.0142 34.3617 24.0142 33.2226 22.8752L30.7478 25.3501ZM39.8223 25.3501C42.3282 22.8442 42.3282 18.7814 39.8223 16.2755L37.3474 18.7504C38.4865 19.8894 38.4865 21.7362 37.3474 22.8752L39.8223 25.3501ZM39.8223 16.2755C37.3164 13.7697 33.2536 13.7697 30.7478 16.2755L33.2226 18.7504C34.3617 17.6114 36.2084 17.6114 37.3474 18.7504L39.8223 16.2755ZM34.8726 41.8492L27.4479 49.2739L29.9228 51.7487L37.3474 44.3241L34.8726 41.8492ZM26.458 48.9439L25.468 42.0142L22.0032 42.5092L22.9932 49.4388L26.458 48.9439ZM34.3776 36.7345L35.0376 41.3543L38.5024 40.8593L37.8424 36.2395L34.3776 36.7345ZM27.4479 49.2739C27.108 49.6138 26.526 49.4197 26.458 48.9439L22.9932 49.4388C23.469 52.7699 27.5435 54.128 29.9228 51.7487L27.4479 49.2739ZM37.3474 44.3241C38.2563 43.4153 38.6841 42.1316 38.5024 40.8593L35.0376 41.3543C35.0635 41.536 35.0024 41.7194 34.8726 41.8492L37.3474 44.3241ZM11.7737 18.7505L4.34907 26.1751L6.82394 28.65L14.2486 21.2253L11.7737 18.7505ZM6.65895 33.1047L13.5886 34.0947L14.0836 30.6299L7.15393 29.6399L6.65895 33.1047ZM19.8583 18.2555L15.2385 17.5955L14.7435 21.0603L19.3633 21.7203L19.8583 18.2555ZM4.34907 26.1751C1.96976 28.5544 3.32792 32.6289 6.65895 33.1047L7.15393 29.6399C6.67806 29.5719 6.48404 28.9899 6.82394 28.65L4.34907 26.1751ZM14.2486 21.2253C14.3784 21.0955 14.5618 21.0344 14.7435 21.0603L15.2385 17.5955C13.9662 17.4138 12.6825 17.8416 11.7737 18.7505L14.2486 21.2253Z" fill="#9300FC"/>
</svg>
