<svg width="40" height="40" viewBox="0 0 40 40" fill="none" xmlns="http://www.w3.org/2000/svg">
<path d="M32.5505 9.21689C33.0386 8.72874 33.0386 7.93728 32.5505 7.44912C32.0623 6.96097 31.2709 6.96097 30.7827 7.44912L32.5505 9.21689ZM7.44937 30.7825C6.96121 31.2706 6.96121 32.0621 7.44937 32.5502C7.93752 33.0384 8.72898 33.0384 9.21714 32.5502L7.44937 30.7825ZM9.21718 7.44912C8.72903 6.96097 7.93757 6.96097 7.44942 7.44912C6.96126 7.93728 6.96126 8.72874 7.44942 9.21689L9.21718 7.44912ZM30.7828 32.5502C31.2709 33.0384 32.0624 33.0384 32.5505 32.5502C33.0387 32.0621 33.0387 31.2706 32.5505 30.7825L30.7828 32.5502ZM30.7827 7.44912L7.44937 30.7825L9.21714 32.5502L32.5505 9.21689L30.7827 7.44912ZM7.44942 9.21689L30.7828 32.5502L32.5505 30.7825L9.21718 7.44912L7.44942 9.21689Z" fill="white"/>
</svg>
